mtllib ./Room_301_0_14.mtl
g Towel
v -9.842045 2.365835 -2.543862
v -9.893387 2.33869 -2.543862
v -9.876734 2.365835 -2.512493
v -9.842045 2.365835 -2.985434
v -9.92375 2.33869 -2.512493
v -10.16831 2.365835 -2.512493
v -10.17867 2.33869 -2.543862
v -10.15636 2.33869 -2.512493
v -9.868174 2.38361 -2.512493
v -9.833485 2.38361 -2.543862
v -9.833485 2.38361 -2.985434
v -9.868174 2.38361 -3.016803
v -10.15636 2.33869 -2.512493
v -10.2226 2.33869 -2.512493
v -10.24358 2.365835 -2.512493
v -10.25297 2.33869 -2.543862
v -10.27827 2.365835 -2.543862
v -9.859613 2.401386 -2.512493
v -9.824924 2.401386 -2.543862
v -9.824924 2.401386 -2.985434
v -9.859613 2.401386 -3.016803
v -9.824924 2.436935 -2.985434
v -9.824924 2.436935 -2.543862
v -9.859613 2.436935 -2.512493
v -9.842045 2.472486 -2.543862
v -9.876734 2.472486 -2.512493
v -9.842045 2.472486 -2.985434
v -9.859613 2.436935 -3.016803
v -9.893387 2.499632 -2.543862
v -9.92375 2.499632 -2.512493
v -10.17867 2.499632 -2.543862
v -9.893387 2.499632 -2.985434
v -9.876734 2.472486 -3.016803
v -10.17867 2.499632 -2.985434
v -10.22233 2.499632 -2.985434
v -10.15636 2.499632 -2.512493
v -10.19197 2.499632 -2.512493
v -10.22233 2.499632 -2.543862
v -10.21294 2.472486 -2.512493
v -10.24763 2.472486 -2.985434
v -10.24763 2.472486 -2.543862
v -10.26694 2.436935 -2.985434
v -9.92375 2.499632 -3.016803
v -10.15636 2.499632 -3.016803
v -10.19197 2.499632 -3.016803
v -10.21294 2.472486 -3.016803
v -10.26694 2.436935 -2.543862
v -10.26694 2.401386 -2.985434
v -10.26694 2.401386 -2.543862
v -10.15636 2.499632 -2.512493
v -10.16831 2.472486 -2.512493
v -10.19197 2.499632 -2.512493
v -9.92375 2.499632 -2.512493
v -10.21294 2.472486 -2.512493
v -10.18278 2.45342 -2.519489
v -10.13723 2.464205 -2.533197
v -10.23225 2.436935 -2.512493
v -10.18278 2.389933 -2.519489
v -10.24763 2.472486 -2.543862
v -9.894371 2.442018 -2.506925
v -10.23225 2.401386 -2.512493
v -10.26694 2.436935 -2.543862
v -10.26694 2.401386 -2.543862
v -9.876734 2.472486 -2.512493
v -9.890944 2.464205 -2.533197
v -9.87648 2.450659 -2.534458
v -9.894371 2.442018 -2.506925
v -9.894371 2.392694 -2.506925
v -9.87648 2.404147 -2.534458
v -9.87648 2.450659 -2.534458
v -9.859613 2.436935 -2.512493
v -9.87648 2.450659 -2.534458
v -9.87648 2.404147 -2.534458
v -9.859613 2.401386 -2.512493
v -9.890944 2.464205 -2.533197
v -9.868174 2.38361 -2.512493
v -9.876734 2.365835 -2.512493
v -9.876608 2.373538 -2.550967
v -10.17554 2.372158 -2.550967
v -10.16831 2.365835 -2.512493
v -10.19966 2.38361 -2.530303
v -9.876608 2.373538 -2.550967
v -10.24358 2.365835 -2.512493
v -10.23434 2.38361 -2.543862
v -10.27827 2.365835 -2.543862
v -9.876734 2.365835 -2.512493
v -10.27827 2.365835 -2.985434
v -10.23434 2.38361 -2.985434
v -10.24358 2.365835 -3.016803
v -10.19966 2.38361 -2.998993
v -10.16831 2.365835 -3.016803
v -10.17554 2.372158 -2.978329
v -9.876608 2.373538 -2.978329
v -9.876734 2.365835 -3.016803
v -9.876734 2.472486 -2.512493
v -10.13723 2.464205 -2.533197
v -10.16831 2.472486 -2.512493
v -9.890944 2.464205 -2.533197
v -10.18278 2.389933 -2.519489
v -10.19966 2.38361 -2.530303
v -10.23225 2.401386 -2.512493
v -10.17554 2.372158 -2.550967
v -9.87648 2.404147 -2.534458
v -9.894371 2.392694 -2.506925
v -10.23434 2.38361 -2.543862
v -10.26694 2.401386 -2.543862
v -9.876608 2.373538 -2.550967
v -10.23434 2.38361 -2.985434
v -10.26694 2.401386 -2.985434
v -10.23225 2.401386 -3.016803
v -10.19966 2.38361 -2.998993
v -10.18278 2.389933 -3.009807
v -10.17554 2.372158 -2.978329
v -9.87648 2.404147 -2.994838
v -9.894371 2.392694 -3.022371
v -9.876608 2.373538 -2.978329
v -10.17867 2.33869 -2.985434
v -10.25297 2.33869 -2.985434
v -9.893387 2.33869 -2.985434
v -10.2226 2.33869 -3.016803
v -10.15636 2.33869 -3.016803
v -9.92375 2.33869 -3.016803
v -10.24358 2.365835 -3.016803
v -10.16831 2.365835 -3.016803
v -10.15636 2.33869 -3.016803
v -9.876734 2.365835 -3.016803
v -10.27827 2.365835 -2.985434
v -10.15636 2.499632 -3.016803
v -10.19197 2.499632 -3.016803
v -10.16831 2.472486 -3.016803
v -10.21294 2.472486 -3.016803
v -10.18278 2.45342 -3.009807
v -10.13723 2.464205 -2.996099
v -9.890944 2.464205 -2.996099
v -10.23225 2.436935 -3.016803
v -10.18278 2.389933 -3.009807
v -10.24763 2.472486 -2.985434
v -10.23225 2.401386 -3.016803
v -10.26694 2.401386 -2.985434
v -9.92375 2.499632 -3.016803
v -9.876734 2.472486 -3.016803
v -9.87648 2.450659 -2.994838
v -9.894371 2.442018 -3.022371
v -9.894371 2.442018 -3.022371
v -9.894371 2.392694 -3.022371
v -9.87648 2.404147 -2.994838
v -9.87648 2.450659 -2.994838
v -10.26694 2.436935 -2.985434
v -9.859613 2.436935 -3.016803
v -9.87648 2.450659 -2.994838
v -9.87648 2.404147 -2.994838
v -9.859613 2.401386 -3.016803
v -9.890944 2.464205 -2.996099
v -9.868174 2.38361 -3.016803
v -9.876734 2.365835 -3.016803
v -9.876608 2.373538 -2.978329
v -9.876734 2.472486 -3.016803
v -10.13723 2.464205 -2.996099
v -9.890944 2.464205 -2.996099
v -10.16831 2.472486 -3.016803

vn 0.7039018 -0.6299224 0.3282068
vn 0.2918545 -0.9412407 0.1699612
vn 0.4782368 -0.5844132 0.6555538
vn 0.7039018 -0.6299226 -0.3282066
vn 0.09628846 -0.7084144 0.6991977
vn 0.08063304 0.5991933 0.7965335
vn 0 -0.9999999 1.192093E-07
vn 0 -0.9999999 1.192093E-07
vn 0.6382453 -0.3073575 0.7058145
vn 0.8326961 -0.4010271 0.3818305
vn 0.8326961 -0.4010273 -0.3818303
vn 0.6382453 -0.3073576 -0.7058144
vn 0 1.192093E-07 0.9999999
vn -0.1706011 -0.6934214 0.7000442
vn -0.4516798 0.2709469 0.8500429
vn -0.452141 -0.8578014 0.2444279
vn -0.7053489 -0.6574039 0.2651468
vn 0.6609313 -0.170238 0.7308821
vn 0.9027563 -0.1986796 0.3815199
vn 0.9027563 -0.1986797 -0.3815198
vn 0.6609313 -0.1702381 -0.7308821
vn 0.9027563 0.1986796 -0.3815199
vn 0.9027563 0.1986797 0.3815198
vn 0.6609313 0.1702381 0.7308821
vn 0.7039018 0.6299226 0.3282066
vn 0.1867772 0.1252507 0.9743851
vn 0.7039018 0.6299224 -0.3282068
vn 0.6609313 0.170238 -0.7308821
vn 0.2918545 0.9412407 0.169961
vn 0.09628846 0.7084146 0.6991976
vn 0 0.9999999 -1.192093E-07
vn 0.2918545 0.9412407 -0.1699612
vn 0.1867772 0.1252505 -0.9743851
vn 0 0.9999999 -1.192093E-07
vn -0.452141 0.8578014 -0.2444279
vn 0 0.9999999 -1.192093E-07
vn -0.1706011 0.6934215 0.700044
vn -0.452141 0.8578014 0.2444277
vn -0.3190742 0.2019126 0.9259713
vn -0.766651 0.5359231 -0.3535995
vn -0.766651 0.5359232 0.3535994
vn -0.8991312 0.2194037 -0.3787149
vn 0.09628846 0.7084144 -0.6991977
vn 0 0.9999999 -1.192093E-07
vn -0.1706011 0.6934214 -0.7000442
vn -0.3190742 0.2019124 -0.9259713
vn -0.8991312 0.2194038 0.3787149
vn -0.8233051 -0.4506097 -0.3451368
vn -0.8233051 -0.4506097 0.3451369
vn 0 1.192093E-07 0.9999999
vn 0.1044662 -0.3137648 0.9437364
vn -0.1706011 0.6934215 0.700044
vn 0.09628846 0.7084146 0.6991976
vn -0.3190742 0.2019126 0.9259713
vn 0.09415203 -0.1279673 0.9872991
vn 0.06122051 -0.1448721 0.9875546
vn -0.3417806 0.107579 0.933602
vn 0.02496442 -0.5353309 0.8442733
vn -0.766651 0.5359232 0.3535994
vn 0.4896801 1.039388E-07 0.8719021
vn -0.2992145 -0.3938558 0.8691077
vn -0.8991312 0.2194038 0.3787149
vn -0.8233051 -0.4506097 0.3451369
vn 0.1867772 0.1252507 0.9743851
vn 0.04767069 -0.02096644 0.9986429
vn 0.04297106 0.6484419 0.7600504
vn 0.02386557 0.9493126 0.3134262
vn 0.3945785 1.095369E-07 0.9188622
vn 0.8385468 6.494875E-08 0.5448295
vn 0.8385468 6.494875E-08 0.5448295
vn -0.822867 -0.123726 0.5546004
vn -0.7631934 -0.3493226 0.5436078
vn -0.8777406 0.1068488 0.4670703
vn -0.7707308 0.1720365 0.613496
vn -0.2204072 -0.8440293 0.4889121
vn -0.7220251 0.3477062 0.5981472
vn -0.9446675 0.1678263 0.2818468
vn -0.9999835 0.005310294 -0.002197364
vn 0.2160118 0.9691539 0.1186568
vn 0.08063304 0.5991933 0.7965335
vn 0.1057803 0.8584197 0.5019222
vn -0.0003662308 0.9811018 0.1934918
vn -0.4516798 0.2709469 0.8500429
vn -0.3039386 0.9137385 0.2696351
vn -0.3718114 0.91874 0.1329401
vn 0 0.9805442 0.1962979
vn -0.3718114 0.91874 -0.1329403
vn -0.3039386 0.9137384 -0.2696353
vn -0.4516798 0.2709467 -0.8500431
vn 0.1057803 0.8584196 -0.5019224
vn 0.08063304 0.5991931 -0.7965336
vn 0.2160118 0.9691539 -0.1186571
vn -0.0003662308 0.9811018 -0.1934921
vn 0 0.9805442 -0.1962982
vn 0.1867772 0.1252507 0.9743851
vn 0.06122051 -0.1448721 0.9875546
vn 0.1044662 -0.3137648 0.9437364
vn -0.2204072 -0.8440293 0.4889121
vn 0.02496442 -0.5353309 0.8442733
vn -0.08285942 -0.8327447 0.5474216
vn -0.2992145 -0.3938558 0.8691077
vn 0.04809725 -0.8516508 0.5218979
vn 0.01797577 -0.8657359 0.500178
vn 0.024995 -0.9286909 -0.3700113
vn -0.392141 -0.866409 0.3091289
vn -0.8233051 -0.4506097 0.3451369
vn 0.002166871 -0.4746972 0.8801464
vn -0.392141 -0.8664091 -0.3091287
vn -0.8233051 -0.4506097 -0.3451368
vn -0.2992145 -0.393856 -0.8691076
vn -0.08285942 -0.8327448 -0.5474214
vn 0.02496442 -0.5353311 -0.8442732
vn 0.04809725 -0.8516509 -0.5218977
vn 0.01797577 -0.8657361 -0.5001778
vn 0.024995 -0.9286908 0.3700116
vn 0.002166871 -0.4746974 -0.8801463
vn 0 -0.9999999 1.192093E-07
vn -0.452141 -0.8578014 -0.2444277
vn 0.2918545 -0.9412407 -0.169961
vn -0.1706011 -0.6934215 -0.700044
vn 0 -0.9999999 1.192093E-07
vn 0.09628846 -0.7084146 -0.6991976
vn -0.4516798 0.2709467 -0.8500431
vn 0.08063304 0.5991931 -0.7965336
vn 0 -1.192093E-07 -0.9999999
vn 0.4782368 -0.5844133 -0.6555536
vn -0.7053489 -0.657404 -0.2651466
vn 0 -1.192093E-07 -0.9999999
vn -0.1706011 0.6934214 -0.7000442
vn 0.1044662 -0.313765 -0.9437363
vn -0.3190742 0.2019124 -0.9259713
vn 0.09415203 -0.1279675 -0.9872991
vn 0.06122051 -0.1448724 -0.9875546
vn 0.04767069 -0.02096668 -0.9986429
vn -0.3417806 0.1075788 -0.933602
vn 0.02496442 -0.5353311 -0.8442732
vn -0.766651 0.5359231 -0.3535995
vn -0.2992145 -0.393856 -0.8691076
vn -0.8233051 -0.4506097 -0.3451368
vn 0.09628846 0.7084144 -0.6991977
vn 0.1867772 0.1252505 -0.9743851
vn 0.04297106 0.6484416 -0.7600505
vn 0.02386557 0.9493124 -0.3134264
vn 0.4896801 -1.039388E-07 -0.8719021
vn 0.3945785 -1.095369E-07 -0.9188622
vn 0.8385468 -6.494875E-08 -0.5448295
vn 0.8385468 -6.494875E-08 -0.5448295
vn -0.8991312 0.2194037 -0.3787149
vn -0.822867 -0.1237261 -0.5546004
vn -0.7631934 -0.3493227 -0.5436077
vn -0.8777406 0.1068487 -0.4670703
vn -0.7707308 0.1720364 -0.613496
vn -0.2204072 -0.8440294 -0.488912
vn -0.7220251 0.347706 -0.5981473
vn -0.9446675 0.1678262 -0.2818468
vn -0.9999835 0.005310295 0.002197362
vn 0.1867772 0.1252505 -0.9743851
vn 0.06122051 -0.1448724 -0.9875546
vn -0.2204072 -0.8440294 -0.488912
vn 0.1044662 -0.313765 -0.9437363

vt 0.3219553 0.06152127
vt 0.2802954 0.05985931
vt 0.3031203 0.02515361
vt 0.3193219 0.353065
vt 0.2596425 0.03877329
vt 0.09146257 0.00390625
vt 0.0839929 0.04922171
vt 0.1010565 0.0260641
vt 0.3232495 0.02332453
vt 0.3355647 0.06141667
vt 0.3333822 0.3532755
vt 0.3205541 0.3909891
vt 0.1010565 0.0260641
vt 0.05502079 0.02809826
vt 0.03310944 0.01350335
vt 0.03290809 0.04775936
vt 0.00390625 0.04235262
vt 0.3418588 0.02391657
vt 0.3492716 0.062337
vt 0.3467466 0.3525385
vt 0.3391369 0.3904477
vt 0.3706821 0.3540664
vt 0.373203 0.06089232
vt 0.3769677 0.02331917
vt 0.3999141 0.05821862
vt 0.4153004 0.02412181
vt 0.3972671 0.3567958
vt 0.3739386 0.3916794
vt 0.4416514 0.05108398
vt 0.4629598 0.02335382
vt 0.6686662 0.03689552
vt 0.4400459 0.3641653
vt 0.4127371 0.3916198
vt 0.6724551 0.3791009
vt 0.7061149 0.3779127
vt 0.6499112 0.01233062
vt 0.6795594 0.01133763
vt 0.7027572 0.03731244
vt 0.7076716 0.00390625
vt 0.7360814 0.3802241
vt 0.7318297 0.03425436
vt 0.7677761 0.3798346
vt 0.4619429 0.3927768
vt 0.6536817 0.404009
vt 0.6836192 0.4045845
vt 0.7120277 0.4115328
vt 0.7635244 0.03386485
vt 0.7956294 0.3794923
vt 0.7913777 0.03352255
vt 0.7871605 0.6267438
vt 0.7915724 0.6056156
vt 0.8125128 0.6213741
vt 0.6215436 0.6618221
vt 0.8233517 0.5988846
vt 0.7980198 0.588675
vt 0.7660062 0.6010988
vt 0.8332932 0.571808
vt 0.7948388 0.5405852
vt 0.8570994 0.598326
vt 0.608856 0.5791729
vt 0.8317813 0.5463383
vt 0.8667518 0.5706365
vt 0.8656609 0.5447485
vt 0.5924301 0.6177552
vt 0.6052443 0.6047772
vt 0.5951162 0.5964552
vt 0.608856 0.5791729
vt 0.5992936 0.5479655
vt 0.5785099 0.5662584
vt 0.5951162 0.5964552
vt 0.5728505 0.5975845
vt 0.5951162 0.5964552
vt 0.5785099 0.5662584
vt 0.559689 0.5747373
vt 0.6052443 0.6047772
vt 0.5560858 0.5605542
vt 0.5524826 0.5463721
vt 0.5810037 0.5405852
vt 0.4452068 0.6210772
vt 0.4738732 0.6260904
vt 0.4513071 0.6450873
vt 0.5216256 0.415439
vt 0.4631898 0.6802827
vt 0.4382671 0.6691085
vt 0.4382671 0.7038811
vt 0.5485764 0.4255785
vt 0.1142155 0.7038811
vt 0.1142155 0.6691085
vt 0.08929282 0.6802827
vt 0.1011755 0.6450873
vt 0.07860942 0.6260904
vt 0.1072758 0.6210772
vt 0.03085697 0.415439
vt 0.00390625 0.4255785
vt 0.9843401 0.6657284
vt 0.7931706 0.6820927
vt 0.7703645 0.6657284
vt 0.9739127 0.6820927
vt 0.07416946 0.9326329
vt 0.0862173 0.9422649
vt 0.07480467 0.9702438
vt 0.09846635 0.9207322
vt 0.02090725 0.7137316
vt 0.00390625 0.7327639
vt 0.1008531 0.9653485
vt 0.1008531 0.9925926
vt 0.04572715 0.7077874
vt 0.4249046 0.9653485
vt 0.4249046 0.9925926
vt 0.450953 0.9702438
vt 0.4395404 0.9422649
vt 0.4515882 0.9326329
vt 0.4272913 0.9207322
vt 0.5048504 0.7137316
vt 0.5218514 0.7327639
vt 0.4800305 0.7077874
vt 0.08444631 0.3649391
vt 0.03346862 0.367097
vt 0.2783615 0.3547244
vt 0.05563467 0.3862565
vt 0.101376 0.387917
vt 0.2578726 0.375519
vt 0.03412206 0.4008635
vt 0.09190393 0.4098802
vt 0.101376 0.387917
vt 0.3005218 0.3890179
vt 0.00540969 0.3726951
vt 0.6320727 0.5015976
vt 0.6067203 0.4962275
vt 0.6276611 0.4804691
vt 0.5958816 0.4737376
vt 0.621214 0.4635284
vt 0.6532271 0.4759528
vt 0.8139877 0.4796341
vt 0.5859413 0.4466606
vt 0.6243958 0.415439
vt 0.5621334 0.4731773
vt 0.5874544 0.4211916
vt 0.5535771 0.4195995
vt 0.7976906 0.5366789
vt 0.8268005 0.4926117
vt 0.8241158 0.4713124
vt 0.8103766 0.4540299
vt 0.8103766 0.4540299
vt 0.8199395 0.4228229
vt 0.8407236 0.4411161
vt 0.8241158 0.4713124
vt 0.5524826 0.4454867
vt 0.8463804 0.4724433
vt 0.8241158 0.4713124
vt 0.8407236 0.4411161
vt 0.8595469 0.4495968
vt 0.8139877 0.4796341
vt 0.8631511 0.4354118
vt 0.8667553 0.4212278
vt 0.8382303 0.415439
vt 0.7664582 0.6820927
vt 0.5752887 0.6657284
vt 0.7560308 0.6657284
vt 0.5524826 0.6820927

usemtl No Name
usemap No Name
f 2/2/2 1/1/1 3/3/3
f 2/2/2 4/4/4 1/1/1
f 2/2/2 3/3/3 5/5/5
f 5/5/5 3/3/3 6/6/6
f 5/5/5 7/7/7 2/2/2
f 5/5/5 8/8/8 7/7/7
f 1/1/1 9/9/9 3/3/3
f 1/1/1 10/10/10 9/9/9
f 1/1/1 11/11/11 10/10/10
f 1/1/1 4/4/4 11/11/11
f 12/12/12 11/11/11 4/4/4
f 5/5/5 6/6/6 13/13/13
f 13/13/13 6/6/6 14/14/14
f 7/7/7 8/8/8 14/14/14
f 6/6/6 15/15/15 14/14/14
f 7/7/7 14/14/14 16/16/16
f 16/16/16 14/14/14 15/15/15
f 16/16/16 15/15/15 17/17/17
f 10/10/10 18/18/18 9/9/9
f 10/10/10 19/19/19 18/18/18
f 10/10/10 20/20/20 19/19/19
f 10/10/10 11/11/11 20/20/20
f 21/21/21 20/20/20 11/11/11
f 21/21/21 11/11/11 12/12/12
f 21/21/21 22/22/22 20/20/20
f 19/19/19 20/20/20 22/22/22
f 19/19/19 22/22/22 23/23/23
f 18/18/18 19/19/19 23/23/23
f 18/18/18 23/23/23 24/24/24
f 24/24/24 23/23/23 25/25/25
f 24/24/24 25/25/25 26/26/26
f 23/23/23 27/27/27 25/25/25
f 23/23/23 22/22/22 27/27/27
f 28/28/28 27/27/27 22/22/22
f 21/21/21 28/28/28 22/22/22
f 26/26/26 25/25/25 29/29/29
f 26/26/26 29/29/29 30/30/30
f 31/31/31 30/30/30 29/29/29
f 25/25/25 32/32/32 29/29/29
f 25/25/25 27/27/27 32/32/32
f 33/33/33 32/32/32 27/27/27
f 28/28/28 33/33/33 27/27/27
f 34/34/34 29/29/29 32/32/32
f 34/34/34 31/31/31 29/29/29
f 35/35/35 31/31/31 34/34/34
f 31/31/31 36/36/36 30/30/30
f 37/37/37 36/36/36 31/31/31
f 37/37/37 31/31/31 38/38/38
f 35/35/35 38/38/38 31/31/31
f 39/39/39 37/37/37 38/38/38
f 40/40/40 38/38/38 35/35/35
f 39/39/39 38/38/38 41/41/41
f 40/40/40 41/41/41 38/38/38
f 42/42/42 41/41/41 40/40/40
f 33/33/33 43/43/43 32/32/32
f 34/34/34 32/32/32 43/43/43
f 34/34/34 43/43/43 44/44/44
f 34/34/34 44/44/44 45/45/45
f 34/34/34 45/45/45 35/35/35
f 35/35/35 45/45/45 46/46/46
f 35/35/35 46/46/46 40/40/40
f 42/42/42 47/47/47 41/41/41
f 48/48/48 47/47/47 42/42/42
f 48/48/48 49/49/49 47/47/47
f 51/51/51 50/50/50 52/52/52
f 51/51/51 53/53/53 50/50/50
f 51/51/51 52/52/52 54/54/54
f 55/55/55 51/51/51 54/54/54
f 56/56/56 51/51/51 55/55/55
f 55/55/55 54/54/54 57/57/57
f 58/58/58 55/55/55 57/57/57
f 57/57/57 54/54/54 59/59/59
f 58/58/58 60/60/60 55/55/55
f 58/58/58 57/57/57 61/61/61
f 57/57/57 59/59/59 62/62/62
f 63/63/63 57/57/57 62/62/62
f 63/63/63 61/61/61 57/57/57
f 51/51/51 64/64/64 53/53/53
f 65/65/65 56/56/56 55/55/55
f 65/65/65 55/55/55 66/66/66
f 67/67/67 66/66/66 55/55/55
f 58/58/58 68/68/68 60/60/60
f 60/60/60 68/68/68 69/69/69
f 60/60/60 69/69/69 70/70/70
f 72/72/72 71/71/71 64/64/64
f 73/73/73 71/71/71 72/72/72
f 73/73/73 74/74/74 71/71/71
f 72/72/72 64/64/64 75/75/75
f 76/76/76 74/74/74 73/73/73
f 76/76/76 73/73/73 77/77/77
f 77/77/77 73/73/73 78/78/78
f 80/80/80 79/79/79 81/81/81
f 82/82/82 79/79/79 80/80/80
f 80/80/80 81/81/81 83/83/83
f 83/83/83 81/81/81 84/84/84
f 83/83/83 84/84/84 85/85/85
f 82/82/82 80/80/80 86/86/86
f 87/87/87 85/85/85 84/84/84
f 87/87/87 84/84/84 88/88/88
f 88/88/88 89/89/89 87/87/87
f 88/88/88 90/90/90 89/89/89
f 90/90/90 91/91/91 89/89/89
f 90/90/90 92/92/92 91/91/91
f 91/91/91 92/92/92 93/93/93
f 91/91/91 93/93/93 94/94/94
f 96/96/96 95/95/95 97/97/97
f 96/96/96 98/98/98 95/95/95
f 100/100/100 99/99/99 101/101/101
f 100/100/100 102/102/102 99/99/99
f 103/103/103 99/99/99 102/102/102
f 104/104/104 99/99/99 103/103/103
f 105/105/105 100/100/100 101/101/101
f 105/105/105 101/101/101 106/106/106
f 103/103/103 102/102/102 107/107/107
f 108/108/108 105/105/105 106/106/106
f 108/108/108 106/106/106 109/109/109
f 108/108/108 109/109/109 110/110/110
f 108/108/108 110/110/110 111/111/111
f 111/111/111 110/110/110 112/112/112
f 111/111/111 112/112/112 113/113/113
f 113/113/113 112/112/112 114/114/114
f 114/114/114 112/112/112 115/115/115
f 113/113/113 114/114/114 116/116/116
f 117/117/117 16/16/16 118/118/118
f 117/117/117 7/7/7 16/16/16
f 119/119/119 7/7/7 117/117/117
f 117/117/117 118/118/118 120/120/120
f 117/117/117 120/120/120 121/121/121
f 117/117/117 121/121/121 122/122/122
f 117/117/117 122/122/122 119/119/119
f 118/118/118 123/123/123 120/120/120
f 120/120/120 123/123/123 124/124/124
f 120/120/120 124/124/124 125/125/125
f 124/124/124 122/122/122 125/125/125
f 124/124/124 126/126/126 122/122/122
f 126/126/126 119/119/119 122/122/122
f 126/126/126 4/4/4 119/119/119
f 12/12/12 4/4/4 126/126/126
f 118/118/118 127/127/127 123/123/123
f 118/118/118 17/17/17 127/127/127
f 118/118/118 16/16/16 17/17/17
f 2/2/2 119/119/119 4/4/4
f 119/119/119 2/2/2 7/7/7
f 129/129/129 128/128/128 130/130/130
f 129/129/129 130/130/130 131/131/131
f 131/131/131 130/130/130 132/132/132
f 132/132/132 130/130/130 133/133/133
f 134/134/134 132/132/132 133/133/133
f 131/131/131 132/132/132 135/135/135
f 135/135/135 132/132/132 136/136/136
f 137/137/137 131/131/131 135/135/135
f 135/135/135 136/136/136 138/138/138
f 139/139/139 135/135/135 138/138/138
f 130/130/130 128/128/128 140/140/140
f 130/130/130 140/140/140 141/141/141
f 134/134/134 142/142/142 132/132/132
f 132/132/132 142/142/142 143/143/143
f 136/136/136 132/132/132 144/144/144
f 136/136/136 144/144/144 145/145/145
f 144/144/144 146/146/146 145/145/145
f 144/144/144 147/147/147 146/146/146
f 137/137/137 135/135/135 148/148/148
f 139/139/139 148/148/148 135/135/135
f 141/141/141 149/149/149 150/150/150
f 149/149/149 151/151/151 150/150/150
f 149/149/149 152/152/152 151/151/151
f 141/141/141 150/150/150 153/153/153
f 151/151/151 152/152/152 154/154/154
f 151/151/151 154/154/154 155/155/155
f 156/156/156 151/151/151 155/155/155
f 158/158/158 157/157/157 159/159/159
f 158/158/158 160/160/160 157/157/157
