mtllib ./Room_301_0_18.mtl
g Plane
v -4.412411 1.303992 -15.06411
v -4.637169 3.576744 -15.06411
v -4.412409 3.351986 -15.06411
v -4.637169 1.079233 -15.06411
v -2.724417 1.303991 -15.0641
v -2.499657 1.079233 -15.0641
v -2.724415 3.351985 -15.0641
v -2.499657 3.576743 -15.0641
v -4.320219 3.261515 -15.15274
v -4.320219 1.394462 -15.1854
v -4.320219 1.394462 -15.15274
v -4.320217 3.261515 -15.1854
v -4.320219 1.394462 -15.15274
v -3.65712 1.394462 -15.1854
v -3.65712 1.394462 -15.15274
v -4.320219 1.394462 -15.1854
v -4.637169 1.079233 -15.06411
v -4.637167 3.576744 -15.21193
v -4.637169 3.576744 -15.06411
v -4.637167 1.079233 -15.21193
v -3.65712 1.394462 -15.15274
v -3.65712 3.261514 -15.1854
v -3.65712 3.261514 -15.15274
v -3.65712 1.394462 -15.1854
v -4.320219 1.394462 -15.1854
v -3.65712 3.261514 -15.1854
v -3.65712 1.394462 -15.1854
v -4.320217 3.261515 -15.1854
v -3.477537 1.394461 -15.1854
v -2.814438 3.261514 -15.18539
v -2.81444 1.394461 -15.18539
v -3.477537 3.261514 -15.1854
v -2.81444 1.394461 -15.15273
v -2.814438 3.261514 -15.18539
v -2.81444 3.261514 -15.15273
v -2.81444 1.394461 -15.18539
v -3.477537 1.394461 -15.15274
v -2.81444 1.394461 -15.18539
v -2.81444 1.394461 -15.15273
v -3.477537 1.394461 -15.1854
v -3.477537 3.261514 -15.15274
v -3.477537 1.394461 -15.1854
v -3.477537 1.394461 -15.15274
v -3.477537 3.261514 -15.1854
v -2.81444 3.261514 -15.15273
v -3.477537 3.261514 -15.1854
v -3.477537 3.261514 -15.15274
v -2.814438 3.261514 -15.18539
v -2.499657 1.079233 -15.0641
v -4.637167 1.079233 -15.21193
v -4.637169 1.079233 -15.06411
v -2.499657 1.079233 -15.21192
v -4.637169 3.576744 -15.06411
v -2.499657 3.576743 -15.21192
v -2.499657 3.576743 -15.0641
v -4.637167 3.576744 -15.21193
v -2.499657 3.576743 -15.0641
v -2.499657 1.079233 -15.21192
v -2.499657 1.079233 -15.0641
v -2.499657 3.576743 -15.21192
v -3.65712 3.261514 -15.15274
v -4.320217 3.261515 -15.1854
v -4.320219 3.261515 -15.15274
v -3.65712 3.261514 -15.1854
v -3.477537 3.261514 -15.15274
v -2.724415 3.351985 -15.15273
v -2.81444 3.261514 -15.15273
v -4.412409 3.351986 -15.15274
v -3.65712 3.261514 -15.15274
v -4.320219 3.261515 -15.15274
v -2.81444 1.394461 -15.15273
v -3.65712 1.394462 -15.15274
v -3.477537 1.394461 -15.15274
v -2.724415 1.303991 -15.15273
v -4.412411 1.303992 -15.15274
v -4.320219 1.394462 -15.15274
v -4.412409 3.351986 -15.15274
v -2.724415 3.351985 -15.15273
v -2.724415 1.303991 -15.15273
v -2.724415 1.303991 -15.15273
v -4.412411 1.303992 -15.06411
v -4.412411 1.303992 -15.15274
v -2.724417 1.303991 -15.0641
v -2.724417 1.303991 -15.0641
v -2.724415 3.351985 -15.15273
v -2.724415 3.351985 -15.0641
v -2.724415 1.303991 -15.15273
v -4.412409 3.351986 -15.06411
v -4.412411 1.303992 -15.15274
v -4.412411 1.303992 -15.06411
v -4.412409 3.351986 -15.15274
v -2.724415 3.351985 -15.0641
v -4.412409 3.351986 -15.15274
v -4.412409 3.351986 -15.06411
v -2.724415 3.351985 -15.15273

vn -4.529953E-06 -5.960464E-08 1
vn -4.529953E-06 -5.960464E-08 1
vn -4.529953E-06 -5.960464E-08 1
vn -4.529953E-06 -5.960464E-08 1
vn -4.529953E-06 -5.960464E-08 1
vn -4.529953E-06 -5.960464E-08 1
vn -4.529953E-06 -5.960464E-08 1
vn -4.529953E-06 -5.960464E-08 1
vn 0.9999999 -1.192093E-07 4.559755E-06
vn 0.9999999 -1.192093E-07 4.559755E-06
vn 0.9999999 -1.192093E-07 4.559755E-06
vn 0.9999999 -1.192093E-07 4.559755E-06
vn 1.490116E-07 1 1.192093E-07
vn 1.490116E-07 1 1.192093E-07
vn 1.490116E-07 1 1.192093E-07
vn 1.490116E-07 1 1.192093E-07
vn -0.9999999 1.192093E-07 -4.559755E-06
vn -0.9999999 1.192093E-07 -4.559755E-06
vn -0.9999999 1.192093E-07 -4.559755E-06
vn -0.9999999 1.192093E-07 -4.559755E-06
vn -0.9999999 1.192093E-07 -4.559755E-06
vn -0.9999999 1.192093E-07 -4.559755E-06
vn -0.9999999 1.192093E-07 -4.559755E-06
vn -0.9999999 1.192093E-07 -4.559755E-06
vn -4.529953E-06 -5.960464E-08 1
vn -4.529953E-06 -5.960464E-08 1
vn -4.529953E-06 -5.960464E-08 1
vn -4.529953E-06 -5.960464E-08 1
vn -4.529953E-06 -5.960464E-08 1
vn -4.529953E-06 -5.960464E-08 1
vn -4.529953E-06 -5.960464E-08 1
vn -4.529953E-06 -5.960464E-08 1
vn -0.9999999 1.192093E-07 -4.559755E-06
vn -0.9999999 1.192093E-07 -4.559755E-06
vn -0.9999999 1.192093E-07 -4.559755E-06
vn -0.9999999 1.192093E-07 -4.559755E-06
vn 1.490116E-07 1 1.192093E-07
vn 1.490116E-07 1 1.192093E-07
vn 1.490116E-07 1 1.192093E-07
vn 1.490116E-07 1 1.192093E-07
vn 0.9999999 -1.192093E-07 4.559755E-06
vn 0.9999999 -1.192093E-07 4.559755E-06
vn 0.9999999 -1.192093E-07 4.559755E-06
vn 0.9999999 -1.192093E-07 4.559755E-06
vn -1.490116E-07 -1 -1.192093E-07
vn -1.490116E-07 -1 -1.192093E-07
vn -1.490116E-07 -1 -1.192093E-07
vn -1.490116E-07 -1 -1.192093E-07
vn -1.490116E-07 -1 -1.192093E-07
vn -1.490116E-07 -1 -1.192093E-07
vn -1.490116E-07 -1 -1.192093E-07
vn -1.490116E-07 -1 -1.192093E-07
vn 1.490116E-07 1 1.192093E-07
vn 1.490116E-07 1 1.192093E-07
vn 1.490116E-07 1 1.192093E-07
vn 1.490116E-07 1 1.192093E-07
vn 0.9999999 -1.192093E-07 4.559755E-06
vn 0.9999999 -1.192093E-07 4.559755E-06
vn 0.9999999 -1.192093E-07 4.559755E-06
vn 0.9999999 -1.192093E-07 4.559755E-06
vn -1.490116E-07 -1 -1.192093E-07
vn -1.490116E-07 -1 -1.192093E-07
vn -1.490116E-07 -1 -1.192093E-07
vn -1.490116E-07 -1 -1.192093E-07
vn -4.529953E-06 -5.960464E-08 1
vn -4.529953E-06 -5.960464E-08 1
vn -4.529953E-06 -5.960464E-08 1
vn -4.529953E-06 -5.960464E-08 1
vn -4.529953E-06 -5.960464E-08 1
vn -4.529953E-06 -5.960464E-08 1
vn -4.529953E-06 -5.960464E-08 1
vn -4.529953E-06 -5.960464E-08 1
vn -4.529953E-06 -5.960464E-08 1
vn -4.529953E-06 -5.960464E-08 1
vn -4.529953E-06 -5.960464E-08 1
vn -4.529953E-06 -5.960464E-08 1
vn -4.529953E-06 -5.960464E-08 1
vn -4.529953E-06 -5.960464E-08 1
vn -4.529953E-06 -5.960464E-08 1
vn 1.490116E-07 1 1.192093E-07
vn 1.490116E-07 1 1.192093E-07
vn 1.490116E-07 1 1.192093E-07
vn 1.490116E-07 1 1.192093E-07
vn -0.9999999 1.192093E-07 -4.559755E-06
vn -0.9999999 1.192093E-07 -4.559755E-06
vn -0.9999999 1.192093E-07 -4.559755E-06
vn -0.9999999 1.192093E-07 -4.559755E-06
vn 0.9999999 -1.192093E-07 4.559755E-06
vn 0.9999999 -1.192093E-07 4.559755E-06
vn 0.9999999 -1.192093E-07 4.559755E-06
vn 0.9999999 -1.192093E-07 4.559755E-06
vn -1.490116E-07 -1 -1.192093E-07
vn -1.490116E-07 -1 -1.192093E-07
vn -1.490116E-07 -1 -1.192093E-07
vn -1.490116E-07 -1 -1.192093E-07


usemtl unnamed
usemap unnamed
f 2/2/2 1/1/1 3/3/3
f 2/2/2 4/4/4 1/1/1
f 4/4/4 5/5/5 1/1/1
f 4/4/4 6/6/6 5/5/5
f 6/6/6 7/7/7 5/5/5
f 8/8/8 3/3/3 7/7/7
f 6/6/6 8/8/8 7/7/7
f 8/8/8 2/2/2 3/3/3
f 10/10/10 9/9/9 11/11/11
f 10/10/10 12/12/12 9/9/9
f 14/14/14 13/13/13 15/15/15
f 14/14/14 16/16/16 13/13/13
f 18/18/18 17/17/17 19/19/19
f 18/18/18 20/20/20 17/17/17
f 22/22/22 21/21/21 23/23/23
f 22/22/22 24/24/24 21/21/21
f 26/26/26 25/25/25 27/27/27
f 26/26/26 28/28/28 25/25/25
f 30/30/30 29/29/29 31/31/31
f 30/30/30 32/32/32 29/29/29
f 34/34/34 33/33/33 35/35/35
f 34/34/34 36/36/36 33/33/33
f 38/38/38 37/37/37 39/39/39
f 38/38/38 40/40/40 37/37/37
f 42/42/42 41/41/41 43/43/43
f 42/42/42 44/44/44 41/41/41
f 46/46/46 45/45/45 47/47/47
f 46/46/46 48/48/48 45/45/45
f 50/50/50 49/49/49 51/51/51
f 50/50/50 52/52/52 49/49/49
f 54/54/54 53/53/53 55/55/55
f 54/54/54 56/56/56 53/53/53
f 58/58/58 57/57/57 59/59/59
f 58/58/58 60/60/60 57/57/57
f 62/62/62 61/61/61 63/63/63
f 62/62/62 64/64/64 61/61/61
f 66/66/66 65/65/65 67/67/67
f 68/68/68 65/65/65 66/66/66
f 68/68/68 69/69/69 65/65/65
f 68/68/68 70/70/70 69/69/69
f 66/66/66 67/67/67 71/71/71
f 65/65/65 69/69/69 72/72/72
f 65/65/65 72/72/72 73/73/73
f 73/73/73 74/74/74 71/71/71
f 73/73/73 75/75/75 74/74/74
f 72/72/72 75/75/75 73/73/73
f 76/76/76 68/68/68 75/75/75
f 72/72/72 76/76/76 75/75/75
f 76/76/76 70/70/70 77/77/77
f 78/78/78 71/71/71 79/79/79
f 81/81/81 80/80/80 82/82/82
f 81/81/81 83/83/83 80/80/80
f 85/85/85 84/84/84 86/86/86
f 85/85/85 87/87/87 84/84/84
f 89/89/89 88/88/88 90/90/90
f 89/89/89 91/91/91 88/88/88
f 93/93/93 92/92/92 94/94/94
f 93/93/93 95/95/95 92/92/92
