mtllib ./Room_301_0_11.mtl
g Towel
v -10.27814 2.526777 -2.99089
v -10.2268 2.499632 -2.990133
v -10.24299 2.526777 -3.021744
v -10.28465 2.526777 -2.549366
v -10.19598 2.499632 -3.021051
v -9.95145 2.526777 -3.017447
v -9.941559 2.499632 -2.985929
v -9.963394 2.499632 -3.017623
v -10.25155 2.544552 -3.02187
v -10.2867 2.544552 -2.991016
v -10.29321 2.544552 -2.549492
v -10.25898 2.544552 -2.517615
v -9.963394 2.499632 -3.017623
v -9.89716 2.499632 -3.016647
v -9.87619 2.526777 -3.016338
v -9.867264 2.499632 -2.984835
v -9.841967 2.526777 -2.984462
v -10.26011 2.562328 -3.021996
v -10.29526 2.562328 -2.991142
v -10.30177 2.562327 -2.549618
v -10.26754 2.562327 -2.517741
v -10.30177 2.597878 -2.549618
v -10.29526 2.597878 -2.991142
v -10.26011 2.597878 -3.021996
v -10.27814 2.633429 -2.99089
v -10.24299 2.633429 -3.021744
v -10.28465 2.633429 -2.549366
v -10.26754 2.597878 -2.517741
v -10.2268 2.660574 -2.990133
v -10.19598 2.660574 -3.021051
v -9.941559 2.660574 -2.985929
v -10.23331 2.660574 -2.548609
v -10.25043 2.633429 -2.517489
v -9.948067 2.660574 -2.544405
v -9.9044 2.660574 -2.543762
v -9.963394 2.660574 -3.017623
v -9.92779 2.660574 -3.017099
v -9.897894 2.660574 -2.985286
v -9.906818 2.633429 -3.01679
v -9.879103 2.633429 -2.543389
v -9.872597 2.633429 -2.984913
v -9.859802 2.597878 -2.543105
v -10.20341 2.660574 -2.516796
v -9.970825 2.660574 -2.513368
v -9.935223 2.660574 -2.512844
v -9.914251 2.633429 -2.512535
v -9.853296 2.597878 -2.984629
v -9.859802 2.562327 -2.543105
v -9.853296 2.562327 -2.984629
v -9.963394 2.660574 -3.017623
v -9.95145 2.633429 -3.017447
v -9.92779 2.660574 -3.017099
v -10.19598 2.660574 -3.021051
v -9.906818 2.633429 -3.01679
v -9.937088 2.614362 -3.010239
v -9.982828 2.625147 -2.997204
v -9.88752 2.597878 -3.016505
v -9.937088 2.550875 -3.010239
v -9.872597 2.633429 -2.984913
v -10.22528 2.60296 -3.027052
v -9.88752 2.562328 -3.016505
v -9.853296 2.597878 -2.984629
v -9.853296 2.562327 -2.984629
v -10.24299 2.633429 -3.021744
v -10.22909 2.625147 -3.000833
v -10.24357 2.611601 -2.999785
v -10.22528 2.60296 -3.027052
v -10.22528 2.553636 -3.027052
v -10.24357 2.565089 -2.999785
v -10.24357 2.611601 -2.999785
v -10.26011 2.597878 -3.021996
v -10.24357 2.611601 -2.999785
v -10.24357 2.565089 -2.999785
v -10.26011 2.562328 -3.021996
v -10.22909 2.625147 -3.000833
v -10.25155 2.544552 -3.02187
v -10.24299 2.526777 -3.021744
v -10.24369 2.53448 -2.983276
v -9.944784 2.5331 -2.978871
v -9.95145 2.526777 -3.017447
v -9.92037 2.544552 -2.999177
v -10.24369 2.53448 -2.983276
v -9.87619 2.526777 -3.016338
v -9.885885 2.544552 -2.985109
v -9.841967 2.526777 -2.984462
v -10.24299 2.526777 -3.021744
v -9.848473 2.526776 -2.542937
v -9.892391 2.544552 -2.543585
v -9.883621 2.526776 -2.512083
v -9.927277 2.544552 -2.530539
v -9.958881 2.526776 -2.513192
v -9.951082 2.5331 -2.551556
v -10.24998 2.53448 -2.555961
v -10.25043 2.526776 -2.517489
v -10.24299 2.633429 -3.021744
v -9.982828 2.625147 -2.997204
v -9.95145 2.633429 -3.017447
v -10.22909 2.625147 -3.000833
v -9.937088 2.550875 -3.010239
v -9.92037 2.544552 -2.999177
v -9.88752 2.562328 -3.016505
v -9.944784 2.5331 -2.978871
v -10.24357 2.565089 -2.999785
v -10.22528 2.553636 -3.027052
v -9.885885 2.544552 -2.985109
v -9.853296 2.562327 -2.984629
v -10.24369 2.53448 -2.983276
v -9.892391 2.544552 -2.543585
v -9.859802 2.562327 -2.543105
v -9.894951 2.562327 -2.51225
v -9.927277 2.544552 -2.530539
v -9.944313 2.550875 -2.519974
v -9.951082 2.5331 -2.551556
v -10.25035 2.565089 -2.539455
v -10.23287 2.553636 -2.511662
v -10.24998 2.53448 -2.555961
v -9.948067 2.499632 -2.544405
v -9.873772 2.499632 -2.54331
v -10.23331 2.499632 -2.548609
v -9.904591 2.499632 -2.512392
v -9.970825 2.499632 -2.513368
v -10.20341 2.499632 -2.516796
v -9.883621 2.526776 -2.512083
v -9.958881 2.526776 -2.513192
v -9.970825 2.499632 -2.513368
v -10.25043 2.526776 -2.517489
v -9.848473 2.526776 -2.542937
v -9.970825 2.660574 -2.513368
v -9.935223 2.660574 -2.512844
v -9.958881 2.633429 -2.513192
v -9.914251 2.633429 -2.512535
v -9.944313 2.614362 -2.519974
v -9.989649 2.625147 -2.534352
v -10.23591 2.625147 -2.537982
v -9.894951 2.597878 -2.51225
v -9.944313 2.550875 -2.519974
v -9.879103 2.633429 -2.543389
v -9.894951 2.562327 -2.51225
v -9.859802 2.562327 -2.543105
v -10.20341 2.660574 -2.516796
v -10.25043 2.633429 -2.517489
v -10.25035 2.611601 -2.539455
v -10.23287 2.60296 -2.511662
v -10.23287 2.60296 -2.511662
v -10.23287 2.553636 -2.511662
v -10.25035 2.565089 -2.539455
v -10.25035 2.611601 -2.539455
v -9.859802 2.597878 -2.543105
v -10.26754 2.597878 -2.517741
v -10.25035 2.611601 -2.539455
v -10.25035 2.565089 -2.539455
v -10.26754 2.562327 -2.517741
v -10.23591 2.625147 -2.537982
v -10.25898 2.544552 -2.517615
v -10.25043 2.526776 -2.517489
v -10.24998 2.53448 -2.555961
v -10.25043 2.633429 -2.517489
v -9.989649 2.625147 -2.534352
v -10.23591 2.625147 -2.537982
v -9.958881 2.633429 -2.513192

vn -0.6989889 -0.6299224 -0.338544
vn -0.2893184 -0.9412407 -0.1742436
vn -0.4685247 -0.5844132 -0.6625301
vn -0.7086619 -0.6299225 0.3177982
vn -0.08597463 -0.7084144 -0.7005408
vn -0.0688864 0.5991934 -0.7976353
vn -1.280569E-07 -1 -1.788139E-07
vn -1.280569E-07 -1 -1.788139E-07
vn -0.6277751 -0.3073574 -0.7151432
vn -0.826979 -0.4010271 -0.3940597
vn -0.8382324 -0.4010272 0.3695182
vn -0.648577 -0.3073576 0.6963326
vn 0.01473612 1.192093E-07 -0.9998914
vn 0.1808984 -0.6934215 -0.6974543
vn 0.4641571 0.2709469 -0.8432947
vn 0.4556937 -0.8578016 -0.2377386
vn 0.7091795 -0.6574041 -0.254724
vn -0.6500892 -0.1702379 -0.7405424
vn -0.8970361 -0.1986795 -0.3947816
vn -0.9082804 -0.1986796 0.3681753
vn -0.67163 -0.1702381 0.7210631
vn -0.9082804 0.1986797 0.3681753
vn -0.8970361 0.1986798 -0.3947815
vn -0.6500892 0.1702382 -0.7405423
vn -0.6989888 0.6299227 -0.3385438
vn -0.1723983 0.1252508 -0.9770318
vn -0.7086618 0.6299226 0.3177984
vn -0.67163 0.1702381 0.7210633
vn -0.2893181 0.9412408 -0.1742433
vn -0.08597445 0.7084147 -0.7005405
vn 1.280569E-07 1 1.788139E-07
vn -0.2943273 0.9412408 0.165642
vn -0.2011156 0.1252505 0.971527
vn 1.280569E-07 1 1.788139E-07
vn 0.4484901 0.8578014 0.2510642
vn 1.280569E-07 1 1.788139E-07
vn 0.1808985 0.6934216 -0.697454
vn 0.455694 0.8578014 -0.2377383
vn 0.3326848 0.2019126 -0.9211689
vn 0.7613571 0.5359231 0.3648586
vn 0.7717785 0.5359231 -0.3422635
vn 0.8934528 0.2194036 0.3919235
vn -0.1065814 0.7084145 0.697703
vn 1.280569E-07 1 1.788139E-07
vn 0.1602667 0.6934214 0.7024823
vn 0.3053944 0.2019123 0.9305728
vn 0.9046144 0.2194037 -0.3654241
vn 0.8181297 -0.4506099 0.3572316
vn 0.8283017 -0.4506098 -0.3329671
vn 0.01473612 1.192093E-07 -0.9998914
vn -0.09054793 -0.3137648 -0.9451734
vn 0.1808985 0.6934216 -0.697454
vn -0.08597445 0.7084147 -0.7005405
vn 0.3326848 0.2019126 -0.9211689
vn -0.07959287 -0.1279673 -0.9885794
vn -0.04666116 -0.1448721 -0.9883496
vn 0.3555011 0.107579 -0.9284641
vn -0.01252046 -0.535331 -0.8445497
vn 0.7717785 0.5359231 -0.3422635
vn -0.4767784 1.677859E-07 -0.8790234
vn 0.3119892 -0.3938558 -0.8646041
vn 0.9046144 0.2194037 -0.3654241
vn 0.8283017 -0.4506098 -0.3329671
vn -0.1723983 0.1252508 -0.9770318
vn -0.0329494 -0.02096643 -0.999237
vn -0.03176611 0.6484419 -0.7606011
vn -0.01924417 0.9493126 -0.3137438
vn -0.3809952 1.609841E-07 -0.924577
vn -0.8304271 1.742828E-07 -0.5571274
vn -0.8304271 1.742828E-07 -0.5571274
vn 0.8309503 -0.1237261 -0.5424144
vn 0.7711211 -0.3493227 -0.5323024
vn 0.8845281 0.1068487 -0.4540851
vn 0.7796876 0.1720365 -0.6020718
vn 0.2275878 -0.8440294 -0.4856112
vn 0.7307611 0.3477061 -0.5874425
vn 0.9487182 0.1678262 -0.2678955
vn 0.9998425 0.005310164 0.016933
vn -0.2142397 0.969154 -0.1218271
vn -0.0688864 0.5991934 -0.7976353
vn -0.09837233 0.8584198 -0.5034264
vn 0.003217637 0.9811018 -0.1934654
vn 0.4641571 0.2709469 -0.8432947
vn 0.3078791 0.9137385 -0.2651269
vn 0.3737302 0.91874 -0.1274465
vn 0.002892797 0.9805443 -0.1962766
vn 0.3698121 0.91874 0.138405
vn 0.2999323 0.9137385 0.274085
vn 0.4391044 0.2709467 0.8566068
vn -0.1131651 0.8584197 0.5003092
vn -0.09236203 0.5991932 0.7952591
vn -0.2177368 0.9691539 0.1154611
vn -0.002485003 0.9811018 0.1934765
vn -0.002892546 0.9805443 0.1962769
vn -0.1723983 0.1252508 -0.9770318
vn -0.04666116 -0.1448721 -0.9883496
vn -0.09054793 -0.3137648 -0.9451734
vn 0.2275878 -0.8440294 -0.4856112
vn -0.01252046 -0.535331 -0.8445497
vn 0.09091718 -0.8327448 -0.5461413
vn 0.3119892 -0.3938558 -0.8646041
vn -0.04040139 -0.8516508 -0.5225501
vn -0.01060324 -0.865736 -0.5003887
vn -0.03044494 -0.928691 0.3696028
vn 0.3966537 -0.8664091 -0.3033168
vn 0.8283017 -0.4506098 -0.3329671
vn 0.01080324 -0.4746972 -0.8800828
vn 0.387543 -0.8664092 0.3148738
vn 0.8181297 -0.4506099 0.3572316
vn 0.2863747 -0.393856 0.8734225
vn 0.07478344 -0.8327449 0.548583
vn -0.03740308 -0.5353312 0.8438137
vn -0.05578288 -0.851651 0.5211322
vn -0.02534461 -0.8657361 0.4998586
vn -0.01953988 -0.9286909 -0.3703398
vn -0.01513664 -0.4746975 0.8800188
vn -1.280569E-07 -1 -1.788139E-07
vn 0.4484899 -0.8578016 0.2510639
vn -0.2943275 -0.9412408 0.1656417
vn 0.1602665 -0.6934217 0.702482
vn -1.280569E-07 -1 -1.788139E-07
vn -0.1065815 -0.7084146 0.6977028
vn 0.4391044 0.2709467 0.8566068
vn -0.09236203 0.5991932 0.7952591
vn -0.01473612 -1.192093E-07 0.9998914
vn -0.4878453 -0.5844133 0.6484351
vn 0.7013651 -0.6574041 0.275512
vn -0.01473612 -1.192093E-07 0.9998914
vn 0.1602667 0.6934214 0.7024823
vn -0.1183619 -0.313765 0.9420944
vn 0.3053944 0.2019123 0.9305728
vn -0.1086908 -0.1279675 0.9858046
vn -0.07576659 -0.1448724 0.9865452
vn -0.06238163 -0.02096667 0.997832
vn 0.3279858 0.1075788 0.9385372
vn -0.03740308 -0.5353312 0.8438137
vn 0.7613571 0.5359231 0.3648586
vn 0.2863747 -0.393856 0.8734225
vn 0.8181297 -0.4506099 0.3572316
vn -0.1065814 0.7084145 0.697703
vn -0.2011156 0.1252505 0.971527
vn -0.0541665 0.6484417 0.7593349
vn -0.02848154 0.9493125 0.3130408
vn -0.5024754 -4.009182E-08 0.8645915
vn -0.4080761 -5.808973E-08 0.9129479
vn -0.8464844 4.438531E-08 0.5324135
vn -0.8464844 4.438531E-08 0.5324135
vn 0.8934528 0.2194036 0.3919235
vn 0.814605 -0.1237263 0.5666661
vn 0.7550998 -0.3493229 0.5547953
vn 0.8707625 0.1068486 0.4799541
vn 0.7616066 0.1720363 0.6247871
vn 0.2131785 -0.8440295 0.4921068
vn 0.7131323 0.347706 0.6087223
vn 0.9404116 0.1678261 0.295737
vn 0.9999073 0.005310165 0.01253875
vn -0.2011156 0.1252505 0.971527
vn -0.07576659 -0.1448724 0.9865452
vn 0.2131785 -0.8440295 0.4921068
vn -0.1183619 -0.313765 0.9420944

vt 0.3219553 0.06152127
vt 0.2802954 0.05985931
vt 0.3031203 0.02515361
vt 0.3193219 0.353065
vt 0.2596425 0.03877329
vt 0.09146257 0.00390625
vt 0.0839929 0.04922171
vt 0.1010565 0.0260641
vt 0.3232495 0.02332453
vt 0.3355647 0.06141667
vt 0.3333822 0.3532755
vt 0.3205541 0.3909891
vt 0.1010565 0.0260641
vt 0.05502079 0.02809826
vt 0.03310944 0.01350335
vt 0.03290809 0.04775936
vt 0.00390625 0.04235262
vt 0.3418588 0.02391657
vt 0.3492716 0.062337
vt 0.3467466 0.3525385
vt 0.3391369 0.3904477
vt 0.3706821 0.3540664
vt 0.373203 0.06089232
vt 0.3769677 0.02331917
vt 0.3999141 0.05821862
vt 0.4153004 0.02412181
vt 0.3972671 0.3567958
vt 0.3739386 0.3916794
vt 0.4416514 0.05108398
vt 0.4629598 0.02335382
vt 0.6686662 0.03689552
vt 0.4400459 0.3641653
vt 0.4127371 0.3916198
vt 0.6724551 0.3791009
vt 0.7061149 0.3779127
vt 0.6499112 0.01233062
vt 0.6795594 0.01133763
vt 0.7027572 0.03731244
vt 0.7076716 0.00390625
vt 0.7360814 0.3802241
vt 0.7318297 0.03425436
vt 0.7677761 0.3798346
vt 0.4619429 0.3927768
vt 0.6536817 0.404009
vt 0.6836192 0.4045845
vt 0.7120277 0.4115328
vt 0.7635244 0.03386485
vt 0.7956294 0.3794923
vt 0.7913777 0.03352255
vt 0.7871605 0.6267438
vt 0.7915724 0.6056156
vt 0.8125128 0.6213741
vt 0.6215436 0.6618221
vt 0.8233517 0.5988846
vt 0.7980198 0.588675
vt 0.7660062 0.6010988
vt 0.8332932 0.571808
vt 0.7948388 0.5405852
vt 0.8570994 0.598326
vt 0.608856 0.5791729
vt 0.8317813 0.5463383
vt 0.8667518 0.5706365
vt 0.8656609 0.5447485
vt 0.5924301 0.6177552
vt 0.6052443 0.6047772
vt 0.5951162 0.5964552
vt 0.608856 0.5791729
vt 0.5992936 0.5479655
vt 0.5785099 0.5662584
vt 0.5951162 0.5964552
vt 0.5728505 0.5975845
vt 0.5951162 0.5964552
vt 0.5785099 0.5662584
vt 0.559689 0.5747373
vt 0.6052443 0.6047772
vt 0.5560858 0.5605542
vt 0.5524826 0.5463721
vt 0.5810037 0.5405852
vt 0.4452068 0.6210772
vt 0.4738732 0.6260904
vt 0.4513071 0.6450873
vt 0.5216256 0.415439
vt 0.4631898 0.6802827
vt 0.4382671 0.6691085
vt 0.4382671 0.7038811
vt 0.5485764 0.4255785
vt 0.1142155 0.7038811
vt 0.1142155 0.6691085
vt 0.08929282 0.6802827
vt 0.1011755 0.6450873
vt 0.07860942 0.6260904
vt 0.1072758 0.6210772
vt 0.03085697 0.415439
vt 0.00390625 0.4255785
vt 0.9843401 0.6657284
vt 0.7931706 0.6820927
vt 0.7703645 0.6657284
vt 0.9739127 0.6820927
vt 0.07416946 0.9326329
vt 0.0862173 0.9422649
vt 0.07480467 0.9702438
vt 0.09846635 0.9207322
vt 0.02090725 0.7137316
vt 0.00390625 0.7327639
vt 0.1008531 0.9653485
vt 0.1008531 0.9925926
vt 0.04572715 0.7077874
vt 0.4249046 0.9653485
vt 0.4249046 0.9925926
vt 0.450953 0.9702438
vt 0.4395404 0.9422649
vt 0.4515882 0.9326329
vt 0.4272913 0.9207322
vt 0.5048504 0.7137316
vt 0.5218514 0.7327639
vt 0.4800305 0.7077874
vt 0.08444631 0.3649391
vt 0.03346862 0.367097
vt 0.2783615 0.3547244
vt 0.05563467 0.3862565
vt 0.101376 0.387917
vt 0.2578726 0.375519
vt 0.03412206 0.4008635
vt 0.09190393 0.4098802
vt 0.101376 0.387917
vt 0.3005218 0.3890179
vt 0.00540969 0.3726951
vt 0.6320727 0.5015976
vt 0.6067203 0.4962275
vt 0.6276611 0.4804691
vt 0.5958816 0.4737376
vt 0.621214 0.4635284
vt 0.6532271 0.4759528
vt 0.8139877 0.4796341
vt 0.5859413 0.4466606
vt 0.6243958 0.415439
vt 0.5621334 0.4731773
vt 0.5874544 0.4211916
vt 0.5535771 0.4195995
vt 0.7976906 0.5366789
vt 0.8268005 0.4926117
vt 0.8241158 0.4713124
vt 0.8103766 0.4540299
vt 0.8103766 0.4540299
vt 0.8199395 0.4228229
vt 0.8407236 0.4411161
vt 0.8241158 0.4713124
vt 0.5524826 0.4454867
vt 0.8463804 0.4724433
vt 0.8241158 0.4713124
vt 0.8407236 0.4411161
vt 0.8595469 0.4495968
vt 0.8139877 0.4796341
vt 0.8631511 0.4354118
vt 0.8667553 0.4212278
vt 0.8382303 0.415439
vt 0.7664582 0.6820927
vt 0.5752887 0.6657284
vt 0.7560308 0.6657284
vt 0.5524826 0.6820927

usemtl No Name
usemap No Name
f 2/2/2 1/1/1 3/3/3
f 2/2/2 4/4/4 1/1/1
f 2/2/2 3/3/3 5/5/5
f 5/5/5 3/3/3 6/6/6
f 5/5/5 7/7/7 2/2/2
f 5/5/5 8/8/8 7/7/7
f 1/1/1 9/9/9 3/3/3
f 1/1/1 10/10/10 9/9/9
f 1/1/1 11/11/11 10/10/10
f 1/1/1 4/4/4 11/11/11
f 12/12/12 11/11/11 4/4/4
f 5/5/5 6/6/6 13/13/13
f 13/13/13 6/6/6 14/14/14
f 7/7/7 8/8/8 14/14/14
f 6/6/6 15/15/15 14/14/14
f 7/7/7 14/14/14 16/16/16
f 16/16/16 14/14/14 15/15/15
f 16/16/16 15/15/15 17/17/17
f 10/10/10 18/18/18 9/9/9
f 10/10/10 19/19/19 18/18/18
f 10/10/10 20/20/20 19/19/19
f 10/10/10 11/11/11 20/20/20
f 21/21/21 20/20/20 11/11/11
f 21/21/21 11/11/11 12/12/12
f 21/21/21 22/22/22 20/20/20
f 19/19/19 20/20/20 22/22/22
f 19/19/19 22/22/22 23/23/23
f 18/18/18 19/19/19 23/23/23
f 18/18/18 23/23/23 24/24/24
f 24/24/24 23/23/23 25/25/25
f 24/24/24 25/25/25 26/26/26
f 23/23/23 27/27/27 25/25/25
f 23/23/23 22/22/22 27/27/27
f 28/28/28 27/27/27 22/22/22
f 21/21/21 28/28/28 22/22/22
f 26/26/26 25/25/25 29/29/29
f 26/26/26 29/29/29 30/30/30
f 31/31/31 30/30/30 29/29/29
f 25/25/25 32/32/32 29/29/29
f 25/25/25 27/27/27 32/32/32
f 33/33/33 32/32/32 27/27/27
f 28/28/28 33/33/33 27/27/27
f 34/34/34 29/29/29 32/32/32
f 34/34/34 31/31/31 29/29/29
f 35/35/35 31/31/31 34/34/34
f 31/31/31 36/36/36 30/30/30
f 37/37/37 36/36/36 31/31/31
f 37/37/37 31/31/31 38/38/38
f 35/35/35 38/38/38 31/31/31
f 39/39/39 37/37/37 38/38/38
f 40/40/40 38/38/38 35/35/35
f 39/39/39 38/38/38 41/41/41
f 40/40/40 41/41/41 38/38/38
f 42/42/42 41/41/41 40/40/40
f 33/33/33 43/43/43 32/32/32
f 34/34/34 32/32/32 43/43/43
f 34/34/34 43/43/43 44/44/44
f 34/34/34 44/44/44 45/45/45
f 34/34/34 45/45/45 35/35/35
f 35/35/35 45/45/45 46/46/46
f 35/35/35 46/46/46 40/40/40
f 42/42/42 47/47/47 41/41/41
f 48/48/48 47/47/47 42/42/42
f 48/48/48 49/49/49 47/47/47
f 51/51/51 50/50/50 52/52/52
f 51/51/51 53/53/53 50/50/50
f 51/51/51 52/52/52 54/54/54
f 55/55/55 51/51/51 54/54/54
f 56/56/56 51/51/51 55/55/55
f 55/55/55 54/54/54 57/57/57
f 58/58/58 55/55/55 57/57/57
f 57/57/57 54/54/54 59/59/59
f 58/58/58 60/60/60 55/55/55
f 58/58/58 57/57/57 61/61/61
f 57/57/57 59/59/59 62/62/62
f 63/63/63 57/57/57 62/62/62
f 63/63/63 61/61/61 57/57/57
f 51/51/51 64/64/64 53/53/53
f 65/65/65 56/56/56 55/55/55
f 65/65/65 55/55/55 66/66/66
f 67/67/67 66/66/66 55/55/55
f 58/58/58 68/68/68 60/60/60
f 60/60/60 68/68/68 69/69/69
f 60/60/60 69/69/69 70/70/70
f 72/72/72 71/71/71 64/64/64
f 73/73/73 71/71/71 72/72/72
f 73/73/73 74/74/74 71/71/71
f 72/72/72 64/64/64 75/75/75
f 76/76/76 74/74/74 73/73/73
f 76/76/76 73/73/73 77/77/77
f 77/77/77 73/73/73 78/78/78
f 80/80/80 79/79/79 81/81/81
f 82/82/82 79/79/79 80/80/80
f 80/80/80 81/81/81 83/83/83
f 83/83/83 81/81/81 84/84/84
f 83/83/83 84/84/84 85/85/85
f 82/82/82 80/80/80 86/86/86
f 87/87/87 85/85/85 84/84/84
f 87/87/87 84/84/84 88/88/88
f 88/88/88 89/89/89 87/87/87
f 88/88/88 90/90/90 89/89/89
f 90/90/90 91/91/91 89/89/89
f 90/90/90 92/92/92 91/91/91
f 91/91/91 92/92/92 93/93/93
f 91/91/91 93/93/93 94/94/94
f 96/96/96 95/95/95 97/97/97
f 96/96/96 98/98/98 95/95/95
f 100/100/100 99/99/99 101/101/101
f 100/100/100 102/102/102 99/99/99
f 103/103/103 99/99/99 102/102/102
f 104/104/104 99/99/99 103/103/103
f 105/105/105 100/100/100 101/101/101
f 105/105/105 101/101/101 106/106/106
f 103/103/103 102/102/102 107/107/107
f 108/108/108 105/105/105 106/106/106
f 108/108/108 106/106/106 109/109/109
f 108/108/108 109/109/109 110/110/110
f 108/108/108 110/110/110 111/111/111
f 111/111/111 110/110/110 112/112/112
f 111/111/111 112/112/112 113/113/113
f 113/113/113 112/112/112 114/114/114
f 114/114/114 112/112/112 115/115/115
f 113/113/113 114/114/114 116/116/116
f 117/117/117 16/16/16 118/118/118
f 117/117/117 7/7/7 16/16/16
f 119/119/119 7/7/7 117/117/117
f 117/117/117 118/118/118 120/120/120
f 117/117/117 120/120/120 121/121/121
f 117/117/117 121/121/121 122/122/122
f 117/117/117 122/122/122 119/119/119
f 118/118/118 123/123/123 120/120/120
f 120/120/120 123/123/123 124/124/124
f 120/120/120 124/124/124 125/125/125
f 124/124/124 122/122/122 125/125/125
f 124/124/124 126/126/126 122/122/122
f 126/126/126 119/119/119 122/122/122
f 126/126/126 4/4/4 119/119/119
f 12/12/12 4/4/4 126/126/126
f 118/118/118 127/127/127 123/123/123
f 118/118/118 17/17/17 127/127/127
f 118/118/118 16/16/16 17/17/17
f 2/2/2 119/119/119 4/4/4
f 119/119/119 2/2/2 7/7/7
f 129/129/129 128/128/128 130/130/130
f 129/129/129 130/130/130 131/131/131
f 131/131/131 130/130/130 132/132/132
f 132/132/132 130/130/130 133/133/133
f 134/134/134 132/132/132 133/133/133
f 131/131/131 132/132/132 135/135/135
f 135/135/135 132/132/132 136/136/136
f 137/137/137 131/131/131 135/135/135
f 135/135/135 136/136/136 138/138/138
f 139/139/139 135/135/135 138/138/138
f 130/130/130 128/128/128 140/140/140
f 130/130/130 140/140/140 141/141/141
f 134/134/134 142/142/142 132/132/132
f 132/132/132 142/142/142 143/143/143
f 136/136/136 132/132/132 144/144/144
f 136/136/136 144/144/144 145/145/145
f 144/144/144 146/146/146 145/145/145
f 144/144/144 147/147/147 146/146/146
f 137/137/137 135/135/135 148/148/148
f 139/139/139 148/148/148 135/135/135
f 141/141/141 149/149/149 150/150/150
f 149/149/149 151/151/151 150/150/150
f 149/149/149 152/152/152 151/151/151
f 141/141/141 150/150/150 153/153/153
f 151/151/151 152/152/152 154/154/154
f 151/151/151 154/154/154 155/155/155
f 156/156/156 151/151/151 155/155/155
f 158/158/158 157/157/157 159/159/159
f 158/158/158 160/160/160 157/157/157
