mtllib ./Room_301_0_0.mtl
g Room_301
v -3.413385 3.779524 -3.133706
v -3.413385 3.779525 -2.026558E-06
v -3.413385 1.346454 -2.026558E-06
v -3.413385 2.598423 -1.633706
v -3.413385 2.598423 -2.814808
v -3.413385 0.2362175 -3.133706
v -3.413385 0.2362175 -2.814807
v -3.413385 1.346454 -1.397485
v -3.413385 1.158246 -1.397485
v -3.413385 0.2362177 -1.633706
v -3.413385 1.158246 -1.243942
v -3.413385 0.236218 -1.243942
v -2.586615 1.122043 -15.11811
v -4.594488 1.122043 -15.35433
v -2.586615 1.122043 -15.35433
v -4.594488 1.122043 -15.11811
v -4.594488 1.122043 -15.35433
v -4.594488 3.543303 -15.11811
v -4.594488 3.543303 -15.35433
v -4.594488 1.122043 -15.11811
v -0.3425198 3.543303 -15.35433
v -0.3425198 1.122043 -15.11811
v -0.3425198 1.122043 -15.35433
v -0.3425198 3.543303 -15.11811
v -0.3425198 3.543303 -15.35433
v -2.350393 3.543303 -15.11811
v -0.3425198 3.543303 -15.11811
v -2.350393 3.543303 -15.35433
v -0.3425198 1.122043 -15.11811
v -2.350393 1.122043 -15.35433
v -0.3425198 1.122043 -15.35433
v -2.350393 1.122043 -15.11811
v -2.350393 1.122043 -15.35433
v -2.350393 3.543303 -15.11811
v -2.350393 3.543303 -15.35433
v -2.350393 1.122043 -15.11811
v -4.15748 3.519681 -3.724257
v -5.641886 3.519681 -3.133706
v -4.15748 3.519681 -3.133706
v -5.641886 3.519681 -3.724257
v -3.177166 0.2362175 -4.96063
v -3.177166 0.2362175 -2.814807
v -3.177166 2.598423 -2.814808
v -3.177166 3.779524 -4.960631
v -3.177166 3.779525 -0.2362219
v -3.177166 2.598423 -1.633706
v -3.177166 0.236218 -0.2362219
v -3.177166 0.2362177 -1.633706
v -10.26378 0.2362175 -4.72441
v -10.26378 0.236218 -1.243942
v -10.26378 3.779524 -4.724411
v -10.26378 1.158246 -1.397485
v -10.26378 1.158246 -1.243942
v -10.26378 1.346454 -1.397485
v -10.26378 3.779525 -2.026558E-06
v -10.26378 1.346454 -2.026558E-06
v -0.1062984 3.779523 -15.11811
v -0.1062984 0.236218 -0.2362219
v -0.1062984 0.2362161 -15.11811
v -0.1062984 3.779525 -0.2362219
v -3.177166 0.236218 -0.2362219
v -2.055119 0.236218 -0.2362219
v -2.055119 2.598423 -0.2362219
v -3.177166 3.779525 -0.2362219
v -0.1062984 3.779525 -0.2362219
v -0.8740158 2.598423 -0.2362219
v -0.1062984 0.236218 -0.2362219
v -0.8740158 0.236218 -0.2362219
v -3.177166 2.598423 -2.814808
v -3.413385 0.2362175 -2.814807
v -3.413385 2.598423 -2.814808
v -3.177166 0.2362175 -2.814807
v -2.350393 3.543303 -15.11811
v -2.586615 1.122043 -15.11811
v -2.586615 3.543303 -15.11811
v -2.350393 1.122043 -15.11811
v -10.26378 0.2362161 -15.11811
v -10.26378 3.779524 -4.960631
v -10.26378 3.779523 -15.11811
v -10.26378 0.2362175 -4.96063
v -2.350393 1.122043 -15.11811
v -4.594488 1.122043 -15.11811
v -2.586615 1.122043 -15.11811
v -0.3425198 1.122043 -15.11811
v -0.1062984 0.2362161 -15.11811
v -0.3425198 1.122043 -15.11811
v -0.1062984 3.779523 -15.11811
v -0.3425198 3.543303 -15.11811
v -10.26378 3.779524 -4.960631
v -3.177166 0.2362175 -4.96063
v -3.177166 3.779524 -4.960631
v -10.26378 0.2362175 -4.96063
v -3.177166 2.598423 -2.814808
v -3.413385 2.598423 -1.633706
v -3.177166 2.598423 -1.633706
v -3.413385 2.598423 -2.814808
v -3.413385 2.598423 -1.633706
v -3.177166 0.2362177 -1.633706
v -3.177166 2.598423 -1.633706
v -3.413385 0.2362177 -1.633706
v -5.901728 3.779524 -4.724411
v -5.901728 0.2362175 -3.133706
v -5.901728 0.2362175 -4.72441
v -5.901728 3.779524 -3.133706
v -5.901728 3.779524 -4.724411
v -10.26378 0.2362175 -4.72441
v -10.26378 3.779524 -4.724411
v -5.901728 0.2362175 -4.72441
v -3.413385 1.158246 -1.397485
v -10.26378 1.158246 -1.243942
v -3.413385 1.158246 -1.243942
v -10.26378 1.158246 -1.397485
v -10.26378 1.158246 -1.243942
v -3.413385 0.236218 -1.243942
v -3.413385 1.158246 -1.243942
v -10.26378 0.236218 -1.243942
v -10.26378 1.346454 -1.397485
v -3.413385 1.158246 -1.397485
v -3.413385 1.346454 -1.397485
v -10.26378 1.158246 -1.397485
v -3.413385 1.346454 -2.026558E-06
v -10.26378 1.346454 -1.397485
v -3.413385 1.346454 -1.397485
v -10.26378 1.346454 -2.026558E-06
v -10.26378 3.779525 -2.026558E-06
v -3.413385 1.346454 -2.026558E-06
v -3.413385 3.779525 -2.026558E-06
v -10.26378 1.346454 -2.026558E-06
v -2.586615 3.543303 -15.35433
v -4.594488 3.543303 -15.11811
v -2.586615 3.543303 -15.11811
v -4.594488 3.543303 -15.35433
v -2.586615 1.122043 -15.11811
v -2.586615 3.543303 -15.35433
v -2.586615 3.543303 -15.11811
v -2.586615 1.122043 -15.35433
v -5.641886 3.519681 -3.133706
v -5.901728 3.779524 -3.133706
v -4.15748 3.519681 -3.133706
v -3.413385 3.779524 -3.133706
v -0.1062984 3.779523 -15.11811
v -4.594488 3.543303 -15.11811
v -10.26378 3.779523 -15.11811
v -2.586615 3.543303 -15.11811
v -2.350393 3.543303 -15.11811
v -0.3425198 3.543303 -15.11811
v -10.26378 0.2362161 -15.11811
v -4.594488 1.122043 -15.11811
v -0.1062984 0.2362161 -15.11811
v -0.3425198 1.122043 -15.11811
v -4.594488 1.122043 -15.11811
v -10.26378 3.779523 -15.11811
v -4.594488 3.543303 -15.11811
v -10.26378 0.2362161 -15.11811
v -4.15748 3.519681 -3.724257
v -5.641886 1.204721 -3.724257
v -5.641886 3.519681 -3.724257
v -4.15748 1.204721 -3.724257
v -5.641886 1.204721 -3.724257
v -5.641886 3.519681 -3.133706
v -5.641886 3.519681 -3.724257
v -5.641886 1.204721 -3.133706
v -4.15748 3.519681 -3.724257
v -4.15748 1.204721 -3.133706
v -4.15748 1.204721 -3.724257
v -4.15748 3.519681 -3.133706
v -4.15748 1.204721 -3.133706
v -5.641886 1.204721 -3.724257
v -4.15748 1.204721 -3.724257
v -5.641886 1.204721 -3.133706
v -3.413385 0.2362175 -3.133706
v -5.901728 0.2362175 -3.133706
v -4.15748 1.204721 -3.133706
v -5.641886 1.204721 -3.133706
v -3.413385 3.779524 -3.133706
v -4.15748 1.204721 -3.133706
v -4.15748 3.519681 -3.133706
v -3.413385 0.2362175 -3.133706
v -5.901728 0.2362175 -3.133706
v -5.901728 3.779524 -3.133706
v -5.641886 1.204721 -3.133706
v -5.641886 3.519681 -3.133706
v -3.177166 0.2362175 -2.814807
v -3.413385 0.2362177 -1.633706
v -3.413385 0.2362175 -2.814807
v -3.177166 0.2362177 -1.633706
v -5.901728 0.2362175 -3.133706
v -3.413385 0.2362175 -3.133706
v -3.413385 0.236218 -1.243942
v -10.26378 0.236218 -1.243942
v -5.901728 0.2362175 -4.72441
v -10.26378 0.2362175 -4.72441
v -10.26378 3.779523 -15.11811
v -10.26378 3.779524 -4.960631
v -0.1062984 3.779523 -15.11811
v -3.177166 3.779524 -4.960631
v -0.1062984 3.779525 -0.2362219
v -3.177166 3.779525 -0.2362219
v -10.26378 3.779525 -2.026558E-06
v -5.901728 3.779524 -4.724411
v -10.26378 3.779524 -4.724411
v -5.901728 3.779524 -3.133706
v -3.413385 3.779525 -2.026558E-06
v -3.413385 3.779524 -3.133706
v -10.26378 0.2362175 -4.96063
v -10.26378 0.2362161 -15.11811
v -0.1062984 0.2362161 -15.11811
v -3.177166 0.2362175 -4.96063
v -0.1062984 0.236218 -0.2362219
v -3.177166 0.2362175 -2.814807
v -0.8740158 0.236218 -0.2362219
v -3.177166 0.2362177 -1.633706
v -2.055119 0.236218 -0.2362219
v -3.177166 0.236218 -0.2362219

vn -1 0 0
vn -1 0 0
vn -1 0 0
vn -1 0 0
vn -1 0 0
vn -1 0 0
vn -1 0 0
vn -1 0 0
vn -1 0 0
vn -1 0 0
vn -1 0 0
vn -1 0 0
vn 0 0.9999999 -1.192093E-07
vn 0 0.9999999 -1.192093E-07
vn 0 0.9999999 -1.192093E-07
vn 0 0.9999999 -1.192093E-07
vn 1 0 0
vn 1 0 0
vn 1 0 0
vn 1 0 0
vn -1 0 0
vn -1 0 0
vn -1 0 0
vn -1 0 0
vn 0 -0.9999999 1.192093E-07
vn 0 -0.9999999 1.192093E-07
vn 0 -0.9999999 1.192093E-07
vn 0 -0.9999999 1.192093E-07
vn 0 0.9999999 -1.192093E-07
vn 0 0.9999999 -1.192093E-07
vn 0 0.9999999 -1.192093E-07
vn 0 0.9999999 -1.192093E-07
vn 1 0 0
vn 1 0 0
vn 1 0 0
vn 1 0 0
vn 0 -0.9999999 1.192093E-07
vn 0 -0.9999999 1.192093E-07
vn 0 -0.9999999 1.192093E-07
vn 0 -0.9999999 1.192093E-07
vn 1 0 0
vn 1 0 0
vn 1 0 0
vn 1 0 0
vn 1 0 0
vn 1 0 0
vn 1 0 0
vn 1 0 0
vn 1 0 0
vn 1 0 0
vn 1 0 0
vn 1 0 0
vn 1 0 0
vn 1 0 0
vn 1 0 0
vn 1 0 0
vn -1 0 0
vn -1 0 0
vn -1 0 0
vn -1 0 0
vn 0 -1.192093E-07 -0.9999999
vn 0 -1.192093E-07 -0.9999999
vn 0 -1.192093E-07 -0.9999999
vn 0 -1.192093E-07 -0.9999999
vn 0 -1.192093E-07 -0.9999999
vn 0 -1.192093E-07 -0.9999999
vn 0 -1.192093E-07 -0.9999999
vn 0 -1.192093E-07 -0.9999999
vn 0 1.192093E-07 0.9999999
vn 0 1.192093E-07 0.9999999
vn 0 1.192093E-07 0.9999999
vn 0 1.192093E-07 0.9999999
vn 0 1.192093E-07 0.9999999
vn 0 1.192093E-07 0.9999999
vn 0 1.192093E-07 0.9999999
vn 0 1.192093E-07 0.9999999
vn 1 0 0
vn 1 0 0
vn 1 0 0
vn 1 0 0
vn 0.2186091 -0.08713245 -0.9719146
vn -0.0231333 -0.0892678 -0.995739
vn 0.1942525 -0.08761974 -0.9770305
vn 0.4067292 -0.08157789 -0.9098991
vn 0 1.192093E-07 0.9999999
vn 0 1.192093E-07 0.9999999
vn 0 1.192093E-07 0.9999999
vn 0 1.192093E-07 0.9999999
vn 0 -1.192093E-07 -0.9999999
vn 0 -1.192093E-07 -0.9999999
vn 0 -1.192093E-07 -0.9999999
vn 0 -1.192093E-07 -0.9999999
vn 0 -0.9999999 1.192093E-07
vn 0 -0.9999999 1.192093E-07
vn 0 -0.9999999 1.192093E-07
vn 0 -0.9999999 1.192093E-07
vn 0 -1.192093E-07 -0.9999999
vn 0 -1.192093E-07 -0.9999999
vn 0 -1.192093E-07 -0.9999999
vn 0 -1.192093E-07 -0.9999999
vn -1 0 0
vn -1 0 0
vn -1 0 0
vn -1 0 0
vn 0 1.192093E-07 0.9999999
vn 0 1.192093E-07 0.9999999
vn 0 1.192093E-07 0.9999999
vn 0 1.192093E-07 0.9999999
vn 0 -0.9999999 1.192093E-07
vn 0 -0.9999999 1.192093E-07
vn 0 -0.9999999 1.192093E-07
vn 0 -0.9999999 1.192093E-07
vn 0 -1.192093E-07 -0.9999999
vn 0 -1.192093E-07 -0.9999999
vn 0 -1.192093E-07 -0.9999999
vn 0 -1.192093E-07 -0.9999999
vn 0 -1.192093E-07 -0.9999999
vn 0 -1.192093E-07 -0.9999999
vn 0 -1.192093E-07 -0.9999999
vn 0 -1.192093E-07 -0.9999999
vn 0 0.9999999 -1.192093E-07
vn 0 0.9999999 -1.192093E-07
vn 0 0.9999999 -1.192093E-07
vn 0 0.9999999 -1.192093E-07
vn 0 -1.192093E-07 -0.9999999
vn 0 -1.192093E-07 -0.9999999
vn 0 -1.192093E-07 -0.9999999
vn 0 -1.192093E-07 -0.9999999
vn 0 -0.9999999 1.192093E-07
vn 0 -0.9999999 1.192093E-07
vn 0 -0.9999999 1.192093E-07
vn 0 -0.9999999 1.192093E-07
vn -1 0 0
vn -1 0 0
vn -1 0 0
vn -1 0 0
vn 0 1.192093E-07 0.9999999
vn 0 1.192093E-07 0.9999999
vn 0 1.192093E-07 0.9999999
vn 0 1.192093E-07 0.9999999
vn 0 1.192093E-07 0.9999999
vn 0 1.192093E-07 0.9999999
vn 0 1.192093E-07 0.9999999
vn 0 1.192093E-07 0.9999999
vn 0 1.192093E-07 0.9999999
vn 0 1.192093E-07 0.9999999
vn 0 1.192093E-07 0.9999999
vn 0 1.192093E-07 0.9999999
vn 0 1.192093E-07 0.9999999
vn 0 1.192093E-07 0.9999999
vn 0 1.192093E-07 0.9999999
vn 0 1.192093E-07 0.9999999
vn 0 1.192093E-07 0.9999999
vn 0 1.192093E-07 0.9999999
vn 0 1.192093E-07 0.9999999
vn 0 1.192093E-07 0.9999999
vn 0 1.192093E-07 0.9999999
vn 0 1.192093E-07 0.9999999
vn 1 0 0
vn 1 0 0
vn 1 0 0
vn 1 0 0
vn -1 0 0
vn -1 0 0
vn -1 0 0
vn -1 0 0
vn 0 0.9999999 -1.192093E-07
vn 0 0.9999999 -1.192093E-07
vn 0 0.9999999 -1.192093E-07
vn 0 0.9999999 -1.192093E-07
vn 0 1.192093E-07 0.9999999
vn 0 1.192093E-07 0.9999999
vn 0 1.192093E-07 0.9999999
vn 0 1.192093E-07 0.9999999
vn 0 1.192093E-07 0.9999999
vn 0 1.192093E-07 0.9999999
vn 0 1.192093E-07 0.9999999
vn 0 1.192093E-07 0.9999999
vn 0 1.192093E-07 0.9999999
vn 0 1.192093E-07 0.9999999
vn 0 1.192093E-07 0.9999999
vn 0 1.192093E-07 0.9999999
vn 0 0.9999999 -1.192093E-07
vn 0 0.9999999 -1.192093E-07
vn 0 0.9999999 -1.192093E-07
vn 0 0.9999999 -1.192093E-07
vn 0 0.9999999 -1.192093E-07
vn 0 0.9999999 -1.192093E-07
vn 0 0.9999999 -1.192093E-07
vn 0 0.9999999 -1.192093E-07
vn 0 0.9999999 -1.192093E-07
vn 0 0.9999999 -1.192093E-07
vn 0 -0.9999999 1.192093E-07
vn 0 -0.9999999 1.192093E-07
vn 0 -0.9999999 1.192093E-07
vn 0 -0.9999999 1.192093E-07
vn 0 -0.9999999 1.192093E-07
vn 0 -0.9999999 1.192093E-07
vn 0 -0.9999999 1.192093E-07
vn 0 -0.9999999 1.192093E-07
vn 0 -0.9999999 1.192093E-07
vn 0 -0.9999999 1.192093E-07
vn 0 -0.9999999 1.192093E-07
vn 0 -0.9999999 1.192093E-07
vn 0 0.9999999 -1.192093E-07
vn 0 0.9999999 -1.192093E-07
vn 0 0.9999999 -1.192093E-07
vn 0 0.9999999 -1.192093E-07
vn 0 0.9999999 -1.192093E-07
vn 0 0.9999999 -1.192093E-07
vn 0 0.9999999 -1.192093E-07
vn 0 0.9999999 -1.192093E-07
vn 0 0.9999999 -1.192093E-07
vn 0 0.9999999 -1.192093E-07

vt 0.8519152 0.5161406
vt 0.8519152 0.3962905
vt 0.9449693 0.3962905
vt 0.8970871 0.4587723
vt 0.8970871 0.5039442
vt 0.9874308 0.5161406
vt 0.9874308 0.5039442
vt 0.9449693 0.4497379
vt 0.9521674 0.4497379
vt 0.9874308 0.4587723
vt 0.9521674 0.4438656
vt 0.9874308 0.4438656
vt 0.9009933 0.8597277
vt 0.9777855 0.8687621
vt 0.9009933 0.8687621
vt 0.9777855 0.8597277
vt 0.8428808 0.3908584
vt 0.9354832 0.381824
vt 0.9354832 0.3908584
vt 0.8428808 0.381824
vt 0.3663178 0.9763005
vt 0.4589201 0.9672662
vt 0.4589201 0.9763005
vt 0.3663178 0.9672662
vt 0.9777854 0.8817027
vt 0.9009933 0.8726684
vt 0.9777854 0.8726684
vt 0.9009933 0.8817027
vt 0.9009933 0.885609
vt 0.9777854 0.8946434
vt 0.9009933 0.8946434
vt 0.9777854 0.885609
vt 0.2698093 0.9892412
vt 0.3624116 0.9802068
vt 0.3624116 0.9892412
vt 0.2698093 0.9802068
vt 0.5195982 0.9898521
vt 0.4628264 0.9672662
vt 0.5195982 0.9672662
vt 0.4628264 0.9898521
vt 0.5769778 0.8597277
vt 0.6590459 0.8597277
vt 0.6590459 0.9500715
vt 0.5769778 0.9952433
vt 0.7576653 0.9952433
vt 0.7042178 0.9500715
vt 0.7576653 0.8597277
vt 0.7042178 0.8597277
vt 0.5769778 0.7203059
vt 0.7100902 0.7203059
vt 0.5769778 0.8558215
vt 0.7042179 0.7555693
vt 0.7100902 0.7555693
vt 0.7042179 0.7627674
vt 0.7576653 0.8558215
vt 0.7576653 0.7627674
vt 0.5730716 0.9241902
vt 0.00390625 0.7886747
vt 0.5730716 0.7886747
vt 0.00390625 0.9241902
vt 0.8428808 0.6531591
vt 0.8428808 0.6102458
vt 0.9332246 0.6102458
vt 0.9783964 0.6531591
vt 0.9783964 0.5357123
vt 0.9332246 0.565074
vt 0.8428808 0.5357123
vt 0.8428808 0.565074
vt 0.3663178 0.9802068
vt 0.4566616 0.9892412
vt 0.3663178 0.9892412
vt 0.4566616 0.9802068
vt 0.6628044 0.2698093
vt 0.6718388 0.177207
vt 0.6718388 0.2698093
vt 0.6628044 0.177207
vt 0.5769778 0.00390625
vt 0.9654558 0.1394218
vt 0.5769778 0.1394218
vt 0.9654558 0.00390625
vt 0 0
vt 0 0
vt 0 0
vt 0 0
vt 0.5769778 0.1433281
vt 0.5860122 0.177207
vt 0.5769778 0.2788436
vt 0.5860122 0.2698093
vt 0.5769778 0.5318061
vt 0.848009 0.3962905
vt 0.848009 0.5318061
vt 0.5769778 0.3962905
vt 0.9913371 0.5200468
vt 0.9461652 0.5290812
vt 0.9461652 0.5200468
vt 0.9913371 0.5290812
vt 0.942259 0.5290812
vt 0.8519152 0.5200468
vt 0.942259 0.5200468
vt 0.8519152 0.5290812
vt 0.7615715 0.9205651
vt 0.897087 0.8597277
vt 0.897087 0.9205651
vt 0.7615715 0.8597277
vt 0.7615715 0.8558215
vt 0.9284004 0.7203059
vt 0.9284004 0.8558215
vt 0.7615715 0.7203059
vt 0.265903 0.9913225
vt 0.00390625 0.9854502
vt 0.265903 0.9854502
vt 0.00390625 0.9913225
vt 0.2698093 0.96336
vt 0.5318061 0.9280965
vt 0.5318061 0.96336
vt 0.2698093 0.9280965
vt 0.5769778 0.3869082
vt 0.8389746 0.3797101
vt 0.8389746 0.3869082
vt 0.5769778 0.3797101
vt 0.00390625 0.9280965
vt 0.265903 0.981544
vt 0.00390625 0.981544
vt 0.265903 0.9280965
vt 0.5769778 0.3758039
vt 0.8389746 0.2827499
vt 0.8389746 0.3758039
vt 0.5769778 0.2827499
vt 0.8383636 0.98649
vt 0.7615715 0.9774557
vt 0.8383636 0.9774557
vt 0.7615715 0.98649
vt 0.3624116 0.9672662
vt 0.2698093 0.9763005
vt 0.2698093 0.9672662
vt 0.3624116 0.9763005
vt 0.8528187 0.36798
vt 0.8428808 0.3779178
vt 0.8528187 0.3112082
vt 0.8428808 0.2827499
vt 0.5769778 0.2788436
vt 0.7486309 0.2698093
vt 0.9654558 0.2788436
vt 0.6718388 0.2698093
vt 0.6628044 0.2698093
vt 0.5860122 0.2698093
vt 0.9654558 0.1433281
vt 0.7486309 0.177207
vt 0.5769778 0.1433281
vt 0.5860122 0.177207
vt 0.7486309 0.177207
vt 0.9654558 0.2788436
vt 0.7486309 0.2698093
vt 0.9654558 0.1433281
vt 0.8428808 0.6570653
vt 0.9314177 0.7138371
vt 0.8428808 0.7138371
vt 0.9314177 0.6570653
vt 0.7615715 0.9470572
vt 0.8501083 0.9244713
vt 0.8501083 0.9470572
vt 0.7615715 0.9244713
vt 0.7615715 0.9735494
vt 0.8501083 0.9509635
vt 0.8501083 0.9735494
vt 0.7615715 0.9509635
vt 0.935324 0.6570653
vt 0.9920958 0.6796513
vt 0.935324 0.6796513
vt 0.9920958 0.6570653
vt 0.9783964 0.2827499
vt 0.9783964 0.3779178
vt 0.9413555 0.3112082
vt 0.9413555 0.36798
vt 0.8428808 0.2827499
vt 0.9413555 0.3112082
vt 0.8528187 0.3112082
vt 0.9783964 0.2827499
vt 0.9783964 0.3779178
vt 0.8428808 0.3779178
vt 0.9413555 0.36798
vt 0.8528187 0.36798
vt 0.4744523 0.1213531
vt 0.5196241 0.1303875
vt 0.4744523 0.1303875
vt 0.5196241 0.1213531
vt 0.4622559 0.2255553
vt 0.4622559 0.1303875
vt 0.5345309 0.1303875
vt 0.5345309 0.3923842
vt 0.4014186 0.2255553
vt 0.4014186 0.3923842
vt 0.5730716 0.7847685
vt 0.1845936 0.7847685
vt 0.5730716 0.3962905
vt 0.1845936 0.5137373
vt 0.00390625 0.3962905
vt 0.00390625 0.5137373
vt 0.5769778 0.5357123
vt 0.7438067 0.7163997
vt 0.5769778 0.7163997
vt 0.7438067 0.6555623
vt 0.8389746 0.5357123
vt 0.8389746 0.6555623
vt 0.3923842 0.3923842
vt 0.00390625 0.3923842
vt 0.00390625 0.00390625
vt 0.3923842 0.1213531
vt 0.5730716 0.00390625
vt 0.4744523 0.1213531
vt 0.5730716 0.03326798
vt 0.5196241 0.1213531
vt 0.5730716 0.07843981
vt 0.5730716 0.1213531

usemtl Wallpaper
usemap Wallpaper
f 2/2/2 1/1/1 3/3/3
f 3/3/3 1/1/1 4/4/4
f 1/1/1 5/5/5 4/4/4
f 1/1/1 6/6/6 5/5/5
f 6/6/6 7/7/7 5/5/5
f 3/3/3 4/4/4 8/8/8
f 8/8/8 4/4/4 9/9/9
f 9/9/9 4/4/4 10/10/10
f 9/9/9 10/10/10 11/11/11
f 11/11/11 10/10/10 12/12/12
f 14/14/14 13/13/13 15/15/15
f 14/14/14 16/16/16 13/13/13
f 18/18/18 17/17/17 19/19/19
f 18/18/18 20/20/20 17/17/17
f 22/22/22 21/21/21 23/23/23
f 22/22/22 24/24/24 21/21/21
f 26/26/26 25/25/25 27/27/27
f 26/26/26 28/28/28 25/25/25
f 30/30/30 29/29/29 31/31/31
f 30/30/30 32/32/32 29/29/29
f 34/34/34 33/33/33 35/35/35
f 34/34/34 36/36/36 33/33/33
f 38/38/38 37/37/37 39/39/39
f 38/38/38 40/40/40 37/37/37
f 42/42/42 41/41/41 43/43/43
f 41/41/41 44/44/44 43/43/43
f 45/45/45 43/43/43 44/44/44
f 45/45/45 46/46/46 43/43/43
f 45/45/45 47/47/47 46/46/46
f 47/47/47 48/48/48 46/46/46
f 50/50/50 49/49/49 51/51/51
f 52/52/52 50/50/50 51/51/51
f 52/52/52 53/53/53 50/50/50
f 52/52/52 51/51/51 54/54/54
f 54/54/54 51/51/51 55/55/55
f 54/54/54 55/55/55 56/56/56
f 58/58/58 57/57/57 59/59/59
f 58/58/58 60/60/60 57/57/57
f 62/62/62 61/61/61 63/63/63
f 61/61/61 64/64/64 63/63/63
f 63/63/63 64/64/64 65/65/65
f 66/66/66 63/63/63 65/65/65
f 66/66/66 65/65/65 67/67/67
f 66/66/66 67/67/67 68/68/68
f 70/70/70 69/69/69 71/71/71
f 70/70/70 72/72/72 69/69/69
f 74/74/74 73/73/73 75/75/75
f 74/74/74 76/76/76 73/73/73
f 78/78/78 77/77/77 79/79/79
f 78/78/78 80/80/80 77/77/77
f 82/82/82 81/81/81 83/83/83
f 82/82/82 84/84/84 81/81/81
f 86/86/86 85/85/85 87/87/87
f 86/86/86 87/87/87 88/88/88
f 90/90/90 89/89/89 91/91/91
f 90/90/90 92/92/92 89/89/89
f 94/94/94 93/93/93 95/95/95
f 94/94/94 96/96/96 93/93/93
f 98/98/98 97/97/97 99/99/99
f 98/98/98 100/100/100 97/97/97
f 102/102/102 101/101/101 103/103/103
f 102/102/102 104/104/104 101/101/101
f 106/106/106 105/105/105 107/107/107
f 106/106/106 108/108/108 105/105/105
f 110/110/110 109/109/109 111/111/111
f 110/110/110 112/112/112 109/109/109
f 114/114/114 113/113/113 115/115/115
f 114/114/114 116/116/116 113/113/113
f 118/118/118 117/117/117 119/119/119
f 118/118/118 120/120/120 117/117/117
f 122/122/122 121/121/121 123/123/123
f 122/122/122 124/124/124 121/121/121
f 126/126/126 125/125/125 127/127/127
f 126/126/126 128/128/128 125/125/125
f 130/130/130 129/129/129 131/131/131
f 130/130/130 132/132/132 129/129/129
f 134/134/134 133/133/133 135/135/135
f 134/134/134 136/136/136 133/133/133
f 138/138/138 137/137/137 139/139/139
f 138/138/138 139/139/139 140/140/140
f 142/142/142 141/141/141 143/143/143
f 144/144/144 141/141/141 142/142/142
f 144/144/144 145/145/145 141/141/141
f 145/145/145 146/146/146 141/141/141
f 148/148/148 147/147/147 149/149/149
f 148/148/148 149/149/149 150/150/150
f 152/152/152 151/151/151 153/153/153
f 152/152/152 154/154/154 151/151/151
f 156/156/156 155/155/155 157/157/157
f 156/156/156 158/158/158 155/155/155
f 160/160/160 159/159/159 161/161/161
f 160/160/160 162/162/162 159/159/159
f 164/164/164 163/163/163 165/165/165
f 164/164/164 166/166/166 163/163/163
f 168/168/168 167/167/167 169/169/169
f 168/168/168 170/170/170 167/167/167
f 172/172/172 171/171/171 173/173/173
f 172/172/172 173/173/173 174/174/174
f 176/176/176 175/175/175 177/177/177
f 176/176/176 178/178/178 175/175/175
f 180/180/180 179/179/179 181/181/181
f 180/180/180 181/181/181 182/182/182

usemtl Tile
usemap Tile
f 184/184/184 183/183/183 185/185/185
f 184/184/184 186/186/186 183/183/183
f 187/187/187 184/184/184 185/185/185
f 188/188/188 187/187/187 185/185/185
f 187/187/187 189/189/189 184/184/184
f 187/187/187 190/190/190 189/189/189
f 191/191/191 190/190/190 187/187/187
f 192/192/192 190/190/190 191/191/191

usemtl Stucco
usemap Stucco
f 194/194/194 193/193/193 195/195/195
f 196/196/196 194/194/194 195/195/195
f 196/196/196 195/195/195 197/197/197
f 196/196/196 197/197/197 198/198/198
f 200/200/200 199/199/199 201/201/201
f 202/202/202 199/199/199 200/200/200
f 202/202/202 203/203/203 199/199/199
f 202/202/202 204/204/204 203/203/203

usemtl Carpet
usemap Carpet
f 206/206/206 205/205/205 207/207/207
f 207/207/207 205/205/205 208/208/208
f 209/209/209 207/207/207 208/208/208
f 209/209/209 208/208/208 210/210/210
f 209/209/209 210/210/210 211/211/211
f 211/211/211 210/210/210 212/212/212
f 213/213/213 211/211/211 212/212/212
f 214/214/214 213/213/213 212/212/212
