mtllib ./Room_301_0_1.mtl
g 301_Shelf
v -4.15748 3.094484 -3.724256
v -4.15748 3.094484 -3.133704
v -5.641886 3.094484 -3.724256
v -5.641886 3.094484 -3.133704
v -4.15748 2.622045 -3.133704
v -5.641886 2.622045 -3.724256
v -4.15748 2.622045 -3.724256
v -5.641886 2.622045 -3.133704
v -4.15748 3.04724 -3.724256
v -5.641886 3.04724 -3.133704
v -4.15748 3.04724 -3.133704
v -5.641886 3.04724 -3.724256
v -4.15748 2.149603 -3.133704
v -5.641886 2.149603 -3.724256
v -4.15748 2.149603 -3.724256
v -5.641886 2.149603 -3.133704
v -4.15748 2.5748 -3.724256
v -5.641886 2.5748 -3.133704
v -4.15748 2.5748 -3.133704
v -5.641886 2.5748 -3.724256
v -4.15748 2.102358 -3.724256
v -5.641886 2.102359 -3.133704
v -4.15748 2.102359 -3.133704
v -5.641886 2.102358 -3.724256
v -4.15748 1.677163 -3.133704
v -5.641886 1.677162 -3.724256
v -4.15748 1.677162 -3.724256
v -5.641886 1.677163 -3.133704
v -4.15748 1.629919 -3.724256
v -5.641886 1.629919 -3.133704
v -4.15748 1.629919 -3.133704
v -5.641886 1.629919 -3.724256
v -5.641886 2.102359 -3.133704
v -4.15748 2.149603 -3.133704
v -4.15748 2.102359 -3.133704
v -5.641886 2.149603 -3.133704
v -4.15748 2.5748 -3.133704
v -5.641886 2.622045 -3.133704
v -4.15748 2.622045 -3.133704
v -5.641886 2.5748 -3.133704
v -4.15748 3.04724 -3.133704
v -5.641886 3.094484 -3.133704
v -4.15748 3.094484 -3.133704
v -5.641886 3.04724 -3.133704
v -4.15748 1.677163 -3.133704
v -5.641886 1.629919 -3.133704
v -5.641886 1.677163 -3.133704
v -4.15748 1.629919 -3.133704

vn 5.000498E-10 0.9999999 -1.192093E-07
vn 5.000498E-10 0.9999999 -1.192093E-07
vn 5.000498E-10 0.9999999 -1.192093E-07
vn 5.000498E-10 0.9999999 -1.192093E-07
vn 5.000498E-10 0.9999999 -1.192093E-07
vn 5.000498E-10 0.9999999 -1.192093E-07
vn 5.000498E-10 0.9999999 -1.192093E-07
vn 5.000498E-10 0.9999999 -1.192093E-07
vn -5.000498E-10 -0.9999999 1.192093E-07
vn -5.000498E-10 -0.9999999 1.192093E-07
vn -5.000498E-10 -0.9999999 1.192093E-07
vn -5.000498E-10 -0.9999999 1.192093E-07
vn 5.000498E-10 0.9999999 -1.192093E-07
vn 5.000498E-10 0.9999999 -1.192093E-07
vn 5.000498E-10 0.9999999 -1.192093E-07
vn 5.000498E-10 0.9999999 -1.192093E-07
vn -5.000498E-10 -0.9999999 1.192093E-07
vn -5.000498E-10 -0.9999999 1.192093E-07
vn -5.000498E-10 -0.9999999 1.192093E-07
vn -5.000498E-10 -0.9999999 1.192093E-07
vn -5.000498E-10 -0.9999999 1.192093E-07
vn -5.000498E-10 -0.9999999 1.192093E-07
vn -5.000498E-10 -0.9999999 1.192093E-07
vn -5.000498E-10 -0.9999999 1.192093E-07
vn 5.000498E-10 0.9999999 -1.192093E-07
vn 5.000498E-10 0.9999999 -1.192093E-07
vn 5.000498E-10 0.9999999 -1.192093E-07
vn 5.000498E-10 0.9999999 -1.192093E-07
vn -5.000498E-10 -0.9999999 1.192093E-07
vn -5.000498E-10 -0.9999999 1.192093E-07
vn -5.000498E-10 -0.9999999 1.192093E-07
vn -5.000498E-10 -0.9999999 1.192093E-07
vn 4.527416E-08 1.192093E-07 0.9999999
vn 4.527416E-08 1.192093E-07 0.9999999
vn 4.527416E-08 1.192093E-07 0.9999999
vn 4.527416E-08 1.192093E-07 0.9999999
vn 4.527416E-08 1.192093E-07 0.9999999
vn 4.527416E-08 1.192093E-07 0.9999999
vn 4.527416E-08 1.192093E-07 0.9999999
vn 4.527416E-08 1.192093E-07 0.9999999
vn 4.527416E-08 1.192093E-07 0.9999999
vn 4.527416E-08 1.192093E-07 0.9999999
vn 4.527416E-08 1.192093E-07 0.9999999
vn 4.527416E-08 1.192093E-07 0.9999999
vn 4.527416E-08 1.192093E-07 0.9999999
vn 4.527416E-08 1.192093E-07 0.9999999
vn 4.527416E-08 1.192093E-07 0.9999999
vn 4.527416E-08 1.192093E-07 0.9999999

vt 0.00390625 0.1996907
vt 0.00390625 0.00390625
vt 0.4960282 0.1996907
vt 0.4960282 0.00390625
vt 0.00390625 0.2035969
vt 0.4960282 0.3993813
vt 0.00390625 0.3993813
vt 0.4960282 0.2035969
vt 0.9920563 0.1996907
vt 0.4999344 0.00390625
vt 0.9920563 0.00390625
vt 0.4999344 0.1996907
vt 0.00390625 0.4032876
vt 0.4960282 0.599072
vt 0.00390625 0.599072
vt 0.4960282 0.4032876
vt 0.9920563 0.3993813
vt 0.4999344 0.2035969
vt 0.9920563 0.2035969
vt 0.4999344 0.3993813
vt 0.4960282 0.7987627
vt 0.00390625 0.6029782
vt 0.4960282 0.6029782
vt 0.00390625 0.7987627
vt 0.4999344 0.4032876
vt 0.9920563 0.599072
vt 0.4999344 0.599072
vt 0.9920563 0.4032876
vt 0.9920563 0.7987627
vt 0.4999344 0.6029782
vt 0.9920563 0.6029782
vt 0.4999344 0.7987627
vt 0.4960282 0.8418072
vt 0.00390625 0.8574702
vt 0.00390625 0.8418072
vt 0.4960282 0.8574702
vt 0.00390625 0.8222378
vt 0.4960282 0.8379009
vt 0.00390625 0.8379009
vt 0.4960282 0.8222378
vt 0.00390625 0.8026689
vt 0.4960282 0.8183316
vt 0.00390625 0.8183316
vt 0.4960282 0.8026689
vt 0.00390625 0.8770391
vt 0.4960282 0.8613765
vt 0.4960282 0.8770391
vt 0.00390625 0.8613765

usemtl Wallpaper
usemap Wallpaper
f 2/2/2 1/1/1 3/3/3
f 4/4/4 2/2/2 3/3/3
f 6/6/6 5/5/5 7/7/7
f 6/6/6 8/8/8 5/5/5
f 10/10/10 9/9/9 11/11/11
f 10/10/10 12/12/12 9/9/9
f 14/14/14 13/13/13 15/15/15
f 14/14/14 16/16/16 13/13/13
f 18/18/18 17/17/17 19/19/19
f 18/18/18 20/20/20 17/17/17
f 22/22/22 21/21/21 23/23/23
f 22/22/22 24/24/24 21/21/21
f 26/26/26 25/25/25 27/27/27
f 26/26/26 28/28/28 25/25/25
f 30/30/30 29/29/29 31/31/31
f 30/30/30 32/32/32 29/29/29
f 34/34/34 33/33/33 35/35/35
f 34/34/34 36/36/36 33/33/33
f 38/38/38 37/37/37 39/39/39
f 38/38/38 40/40/40 37/37/37
f 42/42/42 41/41/41 43/43/43
f 42/42/42 44/44/44 41/41/41
f 46/46/46 45/45/45 47/47/47
f 46/46/46 48/48/48 45/45/45
